<?xml version="1.0" encoding="utf-8"?>
<!-- Generator: Adobe Illustrator 26.3.1, SVG Export Plug-In . SVG Version: 6.00 Build 0)  -->
<svg version="1.1" xmlns="http://www.w3.org/2000/svg" xmlns:xlink="http://www.w3.org/1999/xlink" x="0px" y="0px"
	 viewBox="0 0 200 80" style="enable-background:new 0 0 200 80;" xml:space="preserve">
<style type="text/css">
	.st0{display:none;}
	.st1{display:none;fill:none;stroke:#000000;stroke-width:1.5;stroke-miterlimit:10;}
	.st2{fill:#98E0F5;}
	.st3{fill:none;stroke:#DF004B;stroke-miterlimit:10;}
	.st4{fill:none;stroke:#DF004B;stroke-linecap:round;stroke-linejoin:round;stroke-miterlimit:10;}
	.st5{fill:none;stroke:#DF004B;stroke-width:2;stroke-linecap:round;stroke-linejoin:round;stroke-miterlimit:10;}
	.st6{fill:#00B7E4;}
	.st7{fill:none;stroke:#000000;stroke-width:1.5;stroke-linecap:round;stroke-miterlimit:10;}
	.st8{fill:none;stroke:#000000;stroke-width:1.5;stroke-miterlimit:10;}
	.st9{stroke:#000000;stroke-width:0.25;stroke-miterlimit:10;}
	.st10{stroke:#000000;stroke-width:0.5;stroke-miterlimit:10;}
</style>
<g id="Layer_1" class="st0">
	
		<image style="display:inline;overflow:visible;" width="200" height="80" xlink:href="bask_logo_2020_200px-1.png"  transform="matrix(1 0 0 1 0.2724 0)">
	</image>
</g>
<g id="Layer_2">
	<ellipse class="st1" cx="100.2" cy="39.7" rx="97.9" ry="37.9"/>
	<g id="XMLID_00000170981846462173465990000000793266709701862022_">
		<g>
			<path class="st2" d="M184.7,20.7c6.2,6.4,8,13.2,6.2,18.8c-2.2,6.7-11.2,14.1-27.8,13.3c-16.6-0.8-46.6-8.2-77.6-16.9
				s-56.4-12.2-67-6.3C8.7,35,6,47.2,13.9,57.2l-0.1,0.2C6.5,52.1,2.3,46.1,2.3,39.7c0-20.9,43.8-37.9,97.9-37.9
				c36.1,0,67.6,7.6,84.6,18.8L184.7,20.7z"/>
			<g id="GG_Bridge">
				<g>
					<line class="st3" x1="182.6" y1="38.3" x2="182.6" y2="45.4"/>
					<line class="st3" x1="185.8" y1="40.9" x2="185.8" y2="45.4"/>
					<path class="st4" d="M120.5,44.8c4.6-1.4,15.3-6.6,16.6-9c3,2.7,11.9,9.4,21.3,9.4s19.3-7.5,21-9.7c3.4,2.7,6.9,5.9,9.8,6.7"/>
					<path class="st4" d="M123.4,45.7c11.2,0,59.5,0,62.8,0"/>
					<path class="st5" d="M137.1,48c0-3.8,0-11.4,0-12.2"/>
					<path class="st5" d="M179.3,50.4c0-3.4,0-13.8,0-14.7"/>
					<path class="st3" d="M134,38.7c0,2,0,6.5,0,6.5"/>
					<line class="st3" x1="130.5" y1="40.6" x2="130.5" y2="45.4"/>
					<line class="st4" x1="127.2" y1="42.5" x2="127.2" y2="45.5"/>
					<line class="st3" x1="140.3" y1="38.4" x2="140.3" y2="45.7"/>
					<line class="st3" x1="143.7" y1="40.9" x2="143.7" y2="45.4"/>
					<line class="st3" x1="147.1" y1="42.7" x2="147.1" y2="45.7"/>
					<line class="st4" x1="175.5" y1="39" x2="175.5" y2="45.6"/>
					<line class="st3" x1="172.7" y1="41" x2="172.7" y2="45.5"/>
					<line class="st4" x1="168.9" y1="43.1" x2="168.9" y2="45.7"/>
				</g>
			</g>
			<path class="st6" d="M190.9,39.5c1.8-5.6,0-12.4-6.2-18.8l0.1-0.1c8.4,5.6,13.3,12.1,13.3,19c0,20.9-43.8,37.9-97.9,37.9
				c-37.5,0-70-8.2-86.5-20.1l0.1-0.2C6,47.2,8.7,35,18.5,29.6c10.6-5.9,36-2.5,67,6.3s61,16.1,77.6,16.9
				C179.8,53.6,188.8,46.2,190.9,39.5z"/>
		</g>
		<g>
			<path class="st7" d="M13.7,57.4C6.5,52.1,2.3,46.1,2.3,39.7c0-20.9,43.8-37.9,97.9-37.9c36.1,0,67.6,7.6,84.6,18.8"/>
			<path class="st8" d="M184.8,20.6c8.4,5.6,13.3,12.1,13.3,19c0,20.9-43.8,37.9-97.9,37.9c-37.5,0-70-8.2-86.5-20.1"/>
			<path class="st7" d="M13.9,57.2C6,47.2,8.7,35,18.5,29.6c10.6-5.9,36-2.5,67,6.3s61,16.1,77.6,16.9c16.6,0.8,25.6-6.5,27.8-13.3
				c1.8-5.6,0-12.4-6.2-18.8"/>
		</g>
	</g>
	<path d="M60.6,26.5c6.8,1.7,15,4,14.6,2.5c-0.4-1.4-4.3-4.7-6.8-7.5c-1.7-1.9-4.4-6-4.1-7.4c-0.4,0-3.8-0.5-4.9-0.5s-2,0-4.6,0
		s-5.7-1-3.6-2.3c2.1-1.3,5.4,0.5,7.2,1.2c2.6,0.6,11.4,1.6,15.5,2c3.9,0.4,13.5,2,15,2.2c1.2,0,3.4-0.2,5.5,0.5s2.6,2.2,1.5,2.4
		s-6.8-1-8.5-2.2c-1.4-0.4-5.5-1.1-6.6-1.2c0,0,0.7,4.2,0.1,5.4c-0.5,0.5-2.6,2.2-2.7,2.7c-0.1,0.5,0.2,1.9,0.9,2.7
		c0.7,0.8,1.9,2.4,2.2,3.6c1.4,0.2,1.7-1.3,3.4-0.6c2.1,0.8,14,4.1,15.3,4.6c3,1.1,11.6,1.3,11.5,1.7c0.1,0.9-7.4,2.5-11.5,3.2
		c-1.4-0.4-17.6-4.8-20.8-5.9s-18.4-4.4-21.7-4.5c0,0-11.7-7.4-9.1-7.8C50.1,22.5,54.8,25,60.6,26.5z M69.6,20.5
		c0.7,0.4,1.6,0.8,1.8,0.5s0.5-1,0.3-1.4s-1-0.5-1.6-1.5s-0.5-1.9-0.1-3.1c-0.7-0.4-3.5-0.3-4.7-0.4C65.2,15.9,67.3,19.1,69.6,20.5z
		 M74.6,19.6c-0.2,0.7-0.6,0.5-1,0.6s-0.5,1-0.2,1.5s1.3,0.8,1.6,0.8c0.7-0.3,1.3-1,1.7-1.2s2.1-0.2,2.5-1s0.4-4-0.4-4.4
		s-6.4-0.6-5.4,0.1C73.7,16.3,74.8,18.9,74.6,19.6z"/>
	<g>
		<path class="st9" d="M25.5,48.7c-0.2,0.3-0.4,0.5-0.7,0.6c-0.2,0.1-0.4,0.2-0.6,0.3c-0.2,0.1-0.4,0.1-0.6,0.1
			c-0.2,0-0.4,0.1-0.6,0.1c-0.2,0-0.5,0-0.7,0c-0.1,0-0.3,0-0.5,0l-0.5,0c-0.2,0-0.4,0-0.5-0.1c-0.2,0-0.3,0-0.4-0.1
			c0,0.1-0.1,0.2-0.2,0.2c-0.1,0-0.2,0.1-0.3,0.1c-0.1,0-0.2,0-0.2,0c-0.1,0-0.2-0.1-0.2-0.2c0,0,0-0.1,0-0.1c0,0,0-0.1,0-0.2
			c-0.1,0-0.2-0.1-0.3-0.2c-0.1-0.1-0.1-0.2-0.1-0.3c0-0.1,0-0.3,0.2-0.3c0.1-0.1,0.2-0.1,0.4-0.2c0.1-0.8,0.1-1.6,0.1-2.5v-0.7
			c0-0.2,0-0.5,0-0.7v-0.9c0,0-0.1-0.1-0.1-0.1c0,0-0.1-0.1-0.1-0.2s0-0.1,0.1-0.2c0,0,0.1-0.1,0.1-0.1l0-0.6L19.8,42
			c0.1-0.1,0.2-0.2,0.3-0.3c0.1-0.1,0.3-0.1,0.4-0.1c0.1,0,0.2,0,0.2,0.1c0.1,0,0.1,0.1,0.1,0.1c0,0.1,0.1,0.1,0.1,0.2
			c0,0.1,0,0.1,0,0.2c0.3-0.2,0.6-0.3,1-0.4c0.4-0.1,0.7-0.2,1.1-0.2c0.4,0,0.7,0.1,1,0.2c0.3,0.1,0.5,0.3,0.7,0.4
			c0.2,0.2,0.3,0.4,0.4,0.6c0.1,0.3,0.1,0.5,0.1,0.8c0,0.2,0,0.4-0.1,0.6c0,0.2-0.1,0.4-0.2,0.6c-0.1,0.2-0.3,0.4-0.4,0.5
			c-0.2,0.2-0.4,0.3-0.7,0.4c0.3,0.1,0.5,0.2,0.7,0.3c0.2,0.1,0.4,0.3,0.6,0.4c0.2,0.2,0.3,0.4,0.4,0.6c0.1,0.2,0.1,0.4,0.1,0.6
			C25.7,48.1,25.7,48.4,25.5,48.7z M24.3,47.1c-0.2-0.2-0.4-0.3-0.6-0.4c-0.2-0.1-0.5-0.2-0.8-0.2c-0.3,0-0.6-0.1-0.9-0.1h-1.2
			c0,0.4,0,0.8,0,1.1c0,0.4,0,0.7-0.1,1.1c0.1,0,0.2,0,0.3,0c0.1,0,0.2,0,0.4,0.1c0.1,0,0.3,0,0.5,0.1c0.2,0,0.3,0,0.5,0
			c0.4,0,0.7,0,1-0.1c0.3,0,0.5-0.1,0.7-0.2c0.2-0.1,0.3-0.2,0.4-0.3c0.1-0.1,0.1-0.3,0.1-0.4C24.6,47.5,24.5,47.3,24.3,47.1z
			 M24.2,43.3c0-0.1-0.1-0.2-0.2-0.3c-0.1-0.1-0.2-0.2-0.4-0.3c-0.1-0.1-0.3-0.1-0.5-0.1c-0.2,0-0.4,0-0.6,0.1
			c-0.2,0.1-0.4,0.1-0.6,0.2c-0.2,0.1-0.4,0.2-0.6,0.3c-0.2,0.1-0.3,0.2-0.5,0.3v1l0,1c1.1-0.1,2-0.3,2.5-0.6
			c0.5-0.3,0.8-0.7,0.8-1.3C24.2,43.5,24.2,43.4,24.2,43.3z"/>
		<path class="st9" d="M33.4,49.7c-0.1,0.2-0.3,0.3-0.5,0.3c-0.1,0-0.2,0-0.3,0c-0.1,0-0.2-0.1-0.3-0.1c-0.1,0-0.1-0.1-0.2-0.2
			c-0.1-0.1-0.1-0.1-0.1-0.2c0-0.1,0-0.2,0-0.2c0-0.1,0-0.1,0.1-0.2c0-0.1,0-0.1,0.1-0.2c0-0.1,0-0.1,0-0.2v-0.2l0-0.3
			c0-0.1,0-0.2,0-0.2c0-0.1,0-0.2,0-0.2c-0.3,0.1-0.6,0.1-0.9,0.2c-0.3,0-0.6,0.1-0.9,0.1c-0.3,0-0.6,0.1-0.9,0.1
			c-0.3,0-0.6,0-0.9,0.1c0,0.3-0.1,0.5-0.1,0.8c0,0.3,0,0.6,0,0.8c0,0.1-0.1,0.3-0.2,0.4c-0.1,0.1-0.3,0.2-0.4,0.2
			c-0.1,0-0.1,0-0.2,0c-0.1,0-0.2,0-0.3-0.1c-0.1,0-0.2-0.1-0.2-0.1c-0.1,0-0.1-0.1-0.1-0.2c0-0.1,0-0.3,0-0.4c0-0.1,0-0.3,0.1-0.5
			c0-0.1,0.1-0.3,0.1-0.4c0-0.1,0.1-0.3,0.1-0.4c-0.1,0-0.2,0-0.3,0c-0.1,0-0.2,0-0.2-0.1c-0.1,0-0.1-0.1-0.2-0.2
			c0-0.1-0.1-0.2-0.1-0.3c0,0,0-0.1,0-0.1l0.1-0.2c0,0,0,0,0-0.1c0.1-0.1,0.2-0.2,0.4-0.2c0.1,0,0.2,0,0.3,0c0.1,0,0.1,0,0.2,0.1
			c0-0.2,0.1-0.5,0.3-0.8c0.1-0.3,0.3-0.7,0.4-1.1c0.2-0.4,0.3-0.8,0.6-1.2c0.2-0.4,0.4-0.8,0.7-1.1c0.2-0.3,0.5-0.6,0.8-0.8
			c0.3-0.2,0.5-0.3,0.8-0.3c0.2,0,0.4,0,0.5,0.1c0.1,0.1,0.3,0.2,0.4,0.3c0.1,0.1,0.2,0.3,0.3,0.4c0.1,0.2,0.1,0.3,0.2,0.4
			c0.1,0.3,0.2,0.5,0.2,0.8l0.2,0.9c0,0.3,0.1,0.6,0.1,0.9l0.1,0.8c0,0.3,0.1,0.6,0.1,0.9c0,0.3,0.1,0.6,0.1,0.8c0,0.3,0,0.5,0,0.6
			c0,0.2,0,0.3,0,0.4C33.6,49.4,33.5,49.5,33.4,49.7z M32,45.8c0-0.3-0.1-0.6-0.2-0.9l-0.1-0.5l-0.1-0.5c0-0.2-0.1-0.3-0.1-0.5
			c0-0.1-0.1-0.3-0.2-0.5c0,0,0,0,0-0.1c0,0,0-0.1,0-0.1c-0.1,0-0.1,0-0.2,0.1c-0.1,0.1-0.2,0.2-0.3,0.3c-0.2,0.3-0.4,0.6-0.6,0.9
			c-0.2,0.3-0.3,0.6-0.5,1c-0.1,0.3-0.3,0.7-0.4,1c-0.1,0.3-0.2,0.7-0.3,1c0.5,0,1.1,0,1.6-0.1c0.5-0.1,1-0.2,1.6-0.3
			C32.1,46.5,32,46.1,32,45.8z"/>
		<path class="st9" d="M41.9,42.3c0,0,0,0.1,0,0.1c0,0,0,0.1,0,0.1c0,0,0,0,0,0.1l-0.1,0.1c0,0.1-0.1,0.1-0.1,0.1
			c-0.4,0.7-0.7,1.4-1.1,2.1c-0.4,0.7-0.8,1.4-1.2,2.1c-0.2,0.4-0.5,0.9-0.7,1.3c-0.2,0.4-0.5,0.8-0.7,1.3c-0.1,0.1-0.2,0.3-0.3,0.4
			c-0.1,0.1-0.2,0.3-0.3,0.4c-0.1,0.1-0.3,0.2-0.4,0.2c-0.2,0-0.4-0.1-0.5-0.3c-0.1-0.2-0.2-0.3-0.2-0.5v-0.1c0,0,0,0,0-0.1
			c0-0.1,0.1-0.2,0.2-0.3c0.1-0.1,0.2-0.3,0.3-0.5c0.1-0.2,0.2-0.3,0.3-0.5c0.1-0.1,0.2-0.3,0.2-0.3c0.1-0.2,0.2-0.3,0.3-0.5
			c0.1-0.2,0.2-0.3,0.3-0.5c-0.3-0.3-0.5-0.7-0.7-1c-0.2-0.3-0.4-0.6-0.6-1c-0.2-0.3-0.3-0.6-0.5-1c-0.1-0.3-0.3-0.7-0.4-1.1
			c0,0,0,0,0-0.1c0,0,0,0,0-0.1l0-0.1l0-0.1l-0.1-0.2c0,0,0-0.1,0-0.1c0-0.1,0-0.2,0.1-0.2c0-0.1,0.1-0.1,0.2-0.2
			c0.1,0,0.2-0.1,0.3-0.1c0.1,0,0.2,0,0.2,0c0.2,0,0.3,0,0.5,0.1c0.1,0.1,0.2,0.2,0.3,0.4l0.2,1.1c0.1,0.4,0.2,0.7,0.3,1.1
			c0,0.1,0.1,0.3,0.2,0.4c0.1,0.1,0.1,0.3,0.2,0.4c0.1,0.1,0.2,0.2,0.2,0.3c0.1,0.1,0.2,0.2,0.2,0.3c0.2-0.4,0.5-0.8,0.7-1.3
			c0.2-0.4,0.5-0.8,0.7-1.3c0.1-0.1,0.1-0.2,0.2-0.3s0.1-0.2,0.1-0.4c0-0.1,0.1-0.2,0.2-0.4c0-0.1,0.1-0.2,0.2-0.3
			c0-0.1,0.1-0.2,0.3-0.2c0.1-0.1,0.2-0.1,0.4-0.1c0.1,0,0.3,0.1,0.5,0.2C41.8,42,41.9,42.1,41.9,42.3
			C41.9,42.3,41.9,42.3,41.9,42.3z"/>
		<path class="st9" d="M52.4,49.7c-0.1,0.2-0.3,0.3-0.5,0.3c-0.1,0-0.2,0-0.3,0c-0.1,0-0.2-0.1-0.3-0.1c-0.1,0-0.1-0.1-0.2-0.2
			C51,49.5,51,49.5,51,49.4c0-0.1,0-0.2,0-0.2c0-0.1,0-0.1,0.1-0.2c0-0.1,0-0.1,0.1-0.2c0-0.1,0-0.1,0-0.2v-0.2l0-0.3
			c0-0.1,0-0.2,0-0.2c0-0.1,0-0.2,0-0.2c-0.3,0.1-0.6,0.1-0.9,0.2c-0.3,0-0.6,0.1-0.9,0.1c-0.3,0-0.6,0.1-0.9,0.1
			c-0.3,0-0.6,0-0.9,0.1c0,0.3-0.1,0.5-0.1,0.8c0,0.3,0,0.6,0,0.8c0,0.1-0.1,0.3-0.2,0.4c-0.1,0.1-0.3,0.2-0.4,0.2
			c-0.1,0-0.1,0-0.2,0c-0.1,0-0.2,0-0.3-0.1c-0.1,0-0.2-0.1-0.2-0.1c-0.1,0-0.1-0.1-0.1-0.2c0-0.1,0-0.3,0-0.4c0-0.1,0-0.3,0.1-0.5
			c0-0.1,0.1-0.3,0.1-0.4c0-0.1,0.1-0.3,0.1-0.4c-0.1,0-0.2,0-0.3,0c-0.1,0-0.2,0-0.2-0.1c-0.1,0-0.1-0.1-0.2-0.2
			c0-0.1-0.1-0.2-0.1-0.3c0,0,0-0.1,0-0.1l0.1-0.2c0,0,0,0,0-0.1C45.8,47,46,47,46.2,47c0.1,0,0.2,0,0.3,0c0.1,0,0.1,0,0.2,0.1
			c0-0.2,0.1-0.5,0.3-0.8c0.1-0.3,0.3-0.7,0.4-1.1c0.2-0.4,0.3-0.8,0.6-1.2c0.2-0.4,0.4-0.8,0.7-1.1c0.2-0.3,0.5-0.6,0.8-0.8
			c0.3-0.2,0.5-0.3,0.8-0.3c0.2,0,0.4,0,0.5,0.1c0.1,0.1,0.3,0.2,0.4,0.3c0.1,0.1,0.2,0.3,0.3,0.4c0.1,0.2,0.1,0.3,0.2,0.4
			c0.1,0.3,0.2,0.5,0.2,0.8l0.2,0.9c0,0.3,0.1,0.6,0.1,0.9l0.1,0.8c0,0.3,0.1,0.6,0.1,0.9c0,0.3,0.1,0.6,0.1,0.8c0,0.3,0,0.5,0,0.6
			c0,0.2,0,0.3,0,0.4C52.5,49.4,52.5,49.5,52.4,49.7z M50.9,45.8c0-0.3-0.1-0.6-0.2-0.9l-0.1-0.5l-0.1-0.5c0-0.2-0.1-0.3-0.1-0.5
			c0-0.1-0.1-0.3-0.2-0.5c0,0,0,0,0-0.1c0,0,0-0.1,0-0.1c-0.1,0-0.1,0-0.2,0.1c-0.1,0.1-0.2,0.2-0.3,0.3c-0.2,0.3-0.4,0.6-0.6,0.9
			c-0.2,0.3-0.3,0.6-0.5,1c-0.1,0.3-0.3,0.7-0.4,1c-0.1,0.3-0.2,0.7-0.3,1c0.5,0,1.1,0,1.6-0.1c0.5-0.1,1-0.2,1.6-0.3
			C51,46.5,50.9,46.1,50.9,45.8z"/>
		<path class="st9" d="M61,49.9c-0.1,0.1-0.1,0.2-0.2,0.2c-0.1,0.1-0.2,0.1-0.4,0.1c-0.2,0-0.5-0.2-0.8-0.5
			c-0.2-0.1-0.4-0.3-0.6-0.5l-0.7-0.6c-0.2-0.2-0.4-0.3-0.6-0.5c-0.2-0.2-0.4-0.3-0.6-0.5c-0.2-0.1-0.4-0.3-0.6-0.4
			c-0.2-0.1-0.3-0.2-0.4-0.3l-0.2,0c-0.1,0-0.1,0-0.2,0l0,0.9c0,0.3,0,0.6,0,0.8c0,0.1,0,0.2,0.1,0.3c0,0.1,0.1,0.2,0.1,0.3l0,0.1
			c0,0,0,0.1,0,0.1c0,0.2-0.1,0.3-0.2,0.3c-0.1,0.1-0.2,0.1-0.4,0.1c-0.2,0-0.3,0-0.4-0.1c-0.1-0.1-0.2-0.1-0.3-0.2
			s-0.1-0.2-0.1-0.3s0-0.2,0-0.4c0-0.3,0-0.6,0-0.9l0-0.9c-0.1,0-0.3-0.1-0.4-0.2C54,46.9,54,46.8,54,46.7c0-0.1,0-0.2,0.1-0.3
			c0.1-0.1,0.2-0.1,0.3-0.2c0,0,0,0,0.1,0l0-1v-1.4c0-0.2,0-0.3,0-0.6c-0.1,0-0.3-0.1-0.4-0.2S54,42.9,54,42.7c0-0.1,0-0.2,0.2-0.3
			c0.1-0.1,0.3-0.1,0.6-0.2c0.1-0.1,0.1-0.2,0.2-0.3c0.1-0.1,0.2-0.1,0.3-0.1c0.1,0,0.2,0,0.4,0.1c0.1,0.1,0.2,0.2,0.2,0.3
			c0.3,0,0.6-0.1,0.9-0.1c0.3,0,0.5,0,0.6,0c0.3,0,0.7,0,1.1,0.1c0.4,0.1,0.7,0.2,1,0.3c0.3,0.2,0.6,0.4,0.8,0.6
			c0.2,0.3,0.3,0.6,0.3,1c0,0.4-0.1,0.7-0.3,1c-0.2,0.3-0.4,0.5-0.7,0.7c-0.3,0.2-0.6,0.4-1,0.6c-0.4,0.2-0.8,0.3-1.2,0.4
			c0.2,0.1,0.4,0.3,0.5,0.4c0.2,0.2,0.3,0.3,0.5,0.4l0.2,0.2c0.1,0.1,0.2,0.2,0.3,0.2l0.3,0.2c0.1,0.1,0.2,0.1,0.2,0.2
			c0.1,0.1,0.1,0.1,0.2,0.2c0.1,0.1,0.1,0.1,0.2,0.2c0.3,0.2,0.6,0.4,0.7,0.4c0.1,0,0.1,0,0.1,0l0.1,0c0.1,0.1,0.2,0.2,0.2,0.3
			C61.1,49.7,61,49.8,61,49.9z M59.1,43.4c-0.1-0.1-0.3-0.2-0.5-0.3C58.4,43.1,58.2,43,58,43c-0.2,0-0.4,0-0.6,0
			c-0.6,0-1.1,0.1-1.7,0.2c0,0,0,0.1,0,0.1c0,0,0,0.1,0,0.1c0,0.4-0.1,0.8-0.1,1.2v1.3c0,0.1,0,0.1,0,0.2c0.2,0,0.3-0.1,0.5-0.1
			c0.2,0,0.4-0.1,0.6-0.1l0.6-0.1c0.2,0,0.4-0.1,0.6-0.2c0.4-0.1,0.7-0.3,1-0.6c0.2-0.2,0.4-0.6,0.4-0.9
			C59.3,43.8,59.3,43.6,59.1,43.4z"/>
		<path class="st9" d="M68,42.6c-0.1,0.1-0.2,0.2-0.3,0.2c-0.3,0-0.7,0.1-1.1,0.1c-0.4,0-0.8,0-1.1,0c-0.3,0-0.6,0-0.8,0
			c-0.3,0-0.5,0-0.8,0.1c0,0.8,0,1.5-0.1,2.2l0.5,0l0.5,0l0.5,0c0.2,0,0.3,0,0.4,0c0.2,0,0.3,0,0.4,0c0.1,0,0.3,0,0.4,0
			c0.2,0,0.3,0,0.4,0.1c0.1,0.1,0.2,0.2,0.2,0.4c0,0.2-0.1,0.3-0.2,0.4c-0.1,0.1-0.3,0.1-0.4,0.2c-0.2,0-0.5,0-0.7,0.1
			c-0.3,0-0.5,0-0.7,0.1c-0.3,0-0.5,0-0.7,0.1c-0.3,0-0.5,0-0.7,0c0,0.3-0.1,0.6-0.1,0.9c0,0.3,0,0.6,0,0.9c0,0.2,0,0.3,0.1,0.4
			c0.1,0.1,0.2,0.2,0.3,0.2c0.1,0.1,0.3,0.1,0.5,0.1c0.2,0,0.3,0,0.5,0c0.2,0,0.4,0,0.6,0c0.2,0,0.4,0,0.6-0.1l0.3,0
			c0.1,0,0.2,0,0.3-0.1c0.1,0,0.2,0,0.3,0c0.1,0,0.2,0,0.3,0c0.1,0,0.2,0,0.3,0.1c0.1,0,0.2,0.1,0.3,0.1c0.1,0.1,0.2,0.1,0.2,0.2
			c0.1,0.1,0.1,0.2,0.1,0.2c0,0.1,0,0.2-0.1,0.2c-0.1,0.1-0.1,0.1-0.2,0.2c-0.1,0-0.2,0.1-0.3,0.1c-0.1,0-0.2,0-0.2,0
			c-0.4,0-0.7,0.1-1.1,0.1c-0.4,0-0.7,0-1.1,0c-0.2,0-0.4,0-0.7,0c-0.3,0-0.5-0.1-0.8-0.2c-0.3-0.1-0.5-0.2-0.7-0.3
			c-0.2-0.1-0.4-0.3-0.5-0.5c-0.1-0.1-0.1-0.3-0.1-0.4c0-0.1,0-0.3,0-0.4c0-0.1,0-0.3,0-0.4l0-0.5c0-0.2,0-0.3,0-0.5
			c0-0.1,0-0.2,0-0.3h-0.2c-0.1,0-0.3,0-0.4-0.1c-0.1-0.1-0.1-0.2-0.1-0.4c0-0.1,0-0.2,0.2-0.3c0.1-0.1,0.2-0.1,0.3-0.2h0.1
			c0,0,0,0,0.1,0h0.1l0-0.6l0-0.6l0-0.6c0-0.2,0-0.4,0-0.6c-0.1,0-0.2-0.1-0.3-0.2c-0.1-0.1-0.1-0.2-0.1-0.3c0-0.1,0-0.1,0-0.2
			c0-0.1,0.1-0.1,0.2-0.2c0.1-0.1,0.4-0.1,0.6-0.1c0.3,0,0.6,0,0.9-0.1c0.3,0,0.7,0,1,0l1.1,0l0.4,0l0.4,0c0.1,0,0.3,0,0.4,0
			c0.1,0,0.2,0,0.3,0c0.2,0,0.3,0,0.4,0.1c0.1,0.1,0.2,0.2,0.2,0.4C68.1,42.4,68,42.5,68,42.6z"/>
		<path class="st9" d="M76,49.7c-0.1,0.2-0.3,0.3-0.5,0.3c-0.1,0-0.2,0-0.3,0c-0.1,0-0.2-0.1-0.3-0.1c-0.1,0-0.1-0.1-0.2-0.2
			c-0.1-0.1-0.1-0.1-0.1-0.2c0-0.1,0-0.2,0-0.2c0-0.1,0-0.1,0.1-0.2c0-0.1,0-0.1,0.1-0.2c0-0.1,0-0.1,0-0.2v-0.2l0-0.3
			c0-0.1,0-0.2,0-0.2c0-0.1,0-0.2,0-0.2c-0.3,0.1-0.6,0.1-0.9,0.2c-0.3,0-0.6,0.1-0.9,0.1c-0.3,0-0.6,0.1-0.9,0.1
			c-0.3,0-0.6,0-0.9,0.1c0,0.3-0.1,0.5-0.1,0.8c0,0.3,0,0.6,0,0.8c0,0.1-0.1,0.3-0.2,0.4c-0.1,0.1-0.3,0.2-0.4,0.2
			c-0.1,0-0.1,0-0.2,0c-0.1,0-0.2,0-0.3-0.1c-0.1,0-0.2-0.1-0.2-0.1c-0.1,0-0.1-0.1-0.1-0.2c0-0.1,0-0.3,0-0.4c0-0.1,0-0.3,0.1-0.5
			c0-0.1,0.1-0.3,0.1-0.4c0-0.1,0.1-0.3,0.1-0.4c-0.1,0-0.2,0-0.3,0c-0.1,0-0.2,0-0.2-0.1c-0.1,0-0.1-0.1-0.2-0.2
			c0-0.1-0.1-0.2-0.1-0.3c0,0,0-0.1,0-0.1l0.1-0.2c0,0,0,0,0-0.1c0.1-0.1,0.2-0.2,0.4-0.2c0.1,0,0.2,0,0.3,0c0.1,0,0.1,0,0.2,0.1
			c0-0.2,0.1-0.5,0.3-0.8c0.1-0.3,0.3-0.7,0.4-1.1c0.2-0.4,0.3-0.8,0.6-1.2c0.2-0.4,0.4-0.8,0.7-1.1c0.2-0.3,0.5-0.6,0.8-0.8
			c0.3-0.2,0.5-0.3,0.8-0.3c0.2,0,0.4,0,0.5,0.1c0.1,0.1,0.3,0.2,0.4,0.3c0.1,0.1,0.2,0.3,0.3,0.4c0.1,0.2,0.1,0.3,0.2,0.4
			c0.1,0.3,0.2,0.5,0.2,0.8l0.2,0.9c0,0.3,0.1,0.6,0.1,0.9l0.1,0.8c0,0.3,0.1,0.6,0.1,0.9c0,0.3,0.1,0.6,0.1,0.8c0,0.3,0,0.5,0,0.6
			c0,0.2,0,0.3,0,0.4C76.2,49.4,76.1,49.5,76,49.7z M74.6,45.8c0-0.3-0.1-0.6-0.2-0.9l-0.1-0.5l-0.1-0.5c0-0.2-0.1-0.3-0.1-0.5
			c0-0.1-0.1-0.3-0.2-0.5c0,0,0,0,0-0.1c0,0,0-0.1,0-0.1c-0.1,0-0.1,0-0.2,0.1c-0.1,0.1-0.2,0.2-0.3,0.3c-0.2,0.3-0.4,0.6-0.6,0.9
			c-0.2,0.3-0.3,0.6-0.5,1c-0.1,0.3-0.3,0.7-0.4,1c-0.1,0.3-0.2,0.7-0.3,1c0.5,0,1.1,0,1.6-0.1c0.5-0.1,1-0.2,1.6-0.3
			C74.6,46.5,74.6,46.1,74.6,45.8z"/>
	</g>
	<g>
		<path class="st10" d="M113.8,26.9c-0.3,0.5-0.8,1-1.3,1.3c-0.4,0.2-0.8,0.4-1.1,0.5c-0.4,0.1-0.7,0.2-1.1,0.3
			c-0.4,0.1-0.8,0.1-1.2,0.1c-0.4,0-0.9,0-1.4,0c-0.3,0-0.6,0-1,0l-1.1-0.1c-0.4,0-0.7-0.1-1-0.1c-0.3,0-0.6-0.1-0.7-0.1
			c-0.1,0.2-0.2,0.3-0.4,0.4c-0.2,0.1-0.4,0.1-0.5,0.1c-0.2,0-0.3,0-0.5-0.1c-0.2,0-0.3-0.2-0.4-0.3c-0.1-0.1-0.1-0.2-0.1-0.3
			c0-0.1,0-0.2,0-0.3c-0.2-0.1-0.5-0.2-0.6-0.3c-0.2-0.1-0.3-0.3-0.3-0.6c0-0.3,0.1-0.5,0.3-0.7c0.2-0.2,0.5-0.3,0.8-0.3
			c0.2-1.6,0.3-3.3,0.3-4.9v-1.3c0-0.5,0-1,0-1.4v-1.8c-0.1,0-0.2-0.1-0.2-0.2c-0.1-0.1-0.1-0.2-0.1-0.3c0-0.1,0-0.2,0.1-0.3
			c0-0.1,0.1-0.2,0.2-0.2l0-1.2l-0.1-1c0.1-0.2,0.3-0.4,0.6-0.6c0.3-0.1,0.5-0.2,0.8-0.2c0.2,0,0.3,0,0.5,0.1
			c0.1,0.1,0.2,0.2,0.3,0.3c0.1,0.1,0.1,0.3,0.2,0.4c0,0.1,0,0.3,0,0.4c0.6-0.3,1.3-0.6,2-0.9c0.7-0.3,1.5-0.4,2.2-0.4
			c0.7,0,1.4,0.1,2,0.3c0.6,0.2,1,0.5,1.4,0.9c0.4,0.4,0.7,0.8,0.9,1.3c0.2,0.5,0.3,1,0.3,1.6c0,0.4,0,0.8-0.1,1.2
			c-0.1,0.4-0.3,0.8-0.5,1.2c-0.2,0.4-0.5,0.7-0.9,1.1c-0.4,0.3-0.8,0.6-1.3,0.8c0.5,0.1,1,0.3,1.5,0.6c0.4,0.2,0.8,0.5,1.2,0.9
			c0.3,0.3,0.6,0.7,0.7,1.1c0.2,0.4,0.3,0.8,0.3,1.2C114.3,25.7,114.1,26.4,113.8,26.9z M111.5,23.8c-0.3-0.3-0.7-0.6-1.2-0.8
			c-0.5-0.2-1-0.3-1.6-0.4c-0.6-0.1-1.2-0.1-1.7-0.1h-2.4c0,0.8,0,1.5,0,2.2c0,0.7-0.1,1.4-0.1,2.2c0.1,0,0.3,0.1,0.5,0.1
			c0.2,0,0.4,0.1,0.7,0.1s0.6,0.1,1,0.1c0.3,0,0.7,0,1.1,0c0.8,0,1.5,0,2.1-0.2c0.5-0.1,1-0.3,1.3-0.5c0.3-0.2,0.6-0.4,0.7-0.7
			c0.1-0.2,0.2-0.5,0.2-0.8C112,24.6,111.8,24.1,111.5,23.8z M111.1,16c-0.1-0.2-0.2-0.5-0.4-0.7c-0.2-0.2-0.4-0.4-0.7-0.5
			c-0.3-0.1-0.6-0.2-1-0.2c-0.3,0-0.7,0.1-1.1,0.2c-0.4,0.1-0.8,0.3-1.2,0.5c-0.4,0.2-0.8,0.4-1.1,0.6c-0.4,0.2-0.7,0.4-0.9,0.6v2
			l0,1.9c2.3-0.2,3.9-0.5,5-1.1c1.1-0.6,1.6-1.4,1.6-2.5C111.3,16.5,111.2,16.3,111.1,16z"/>
		<path class="st10" d="M130.6,28.9c-0.2,0.3-0.6,0.5-1.1,0.5c-0.2,0-0.3,0-0.5-0.1c-0.2,0-0.4-0.1-0.5-0.3
			c-0.2-0.1-0.3-0.2-0.4-0.4c-0.1-0.1-0.2-0.3-0.2-0.5c0-0.1,0-0.3,0.1-0.5c0-0.1,0.1-0.3,0.1-0.4c0-0.1,0.1-0.3,0.1-0.4
			c0-0.1,0-0.3,0-0.4v-0.3l0-0.5c0-0.1,0-0.3,0-0.5c0-0.2,0-0.3,0-0.4c-0.6,0.1-1.2,0.3-1.8,0.4c-0.6,0.1-1.2,0.2-1.7,0.2
			c-0.6,0.1-1.1,0.1-1.7,0.2c-0.6,0-1.2,0.1-1.8,0.1c-0.1,0.5-0.2,1.1-0.2,1.7c0,0.6-0.1,1.1-0.1,1.7c0,0.3-0.1,0.5-0.4,0.7
			s-0.5,0.4-0.8,0.4c-0.1,0-0.3,0-0.5-0.1c-0.2,0-0.4-0.1-0.6-0.2c-0.2-0.1-0.4-0.2-0.5-0.3c-0.1-0.1-0.2-0.2-0.2-0.4
			c0-0.3,0-0.6,0.1-0.9c0-0.3,0.1-0.6,0.2-0.9c0-0.3,0.1-0.6,0.2-0.9c0-0.3,0.1-0.6,0.2-0.8c-0.2,0-0.5,0-0.6-0.1
			c-0.2,0-0.3-0.1-0.4-0.2c-0.1-0.1-0.2-0.2-0.3-0.3c-0.1-0.1-0.2-0.3-0.2-0.6c0-0.1,0-0.1,0.1-0.2l0.2-0.4c0,0,0-0.1,0.1-0.2
			c0.2-0.2,0.5-0.3,0.9-0.3c0.2,0,0.3,0,0.5,0c0.1,0,0.3,0.1,0.5,0.1c0.1-0.4,0.3-0.9,0.5-1.6c0.2-0.7,0.5-1.4,0.9-2.2
			c0.3-0.8,0.7-1.6,1.1-2.4c0.4-0.8,0.9-1.5,1.3-2.2c0.5-0.6,1-1.2,1.5-1.6c0.5-0.4,1.1-0.6,1.6-0.6c0.4,0,0.7,0.1,1,0.3
			c0.3,0.2,0.6,0.4,0.8,0.6c0.2,0.3,0.4,0.6,0.6,0.9c0.1,0.3,0.3,0.6,0.4,0.9c0.2,0.5,0.3,1.1,0.5,1.6l0.4,1.7
			c0.1,0.6,0.2,1.2,0.3,1.7l0.2,1.7c0.1,0.6,0.2,1.2,0.2,1.8c0.1,0.6,0.1,1.1,0.2,1.6c0,0.5,0.1,0.9,0.1,1.3c0,0.4,0,0.6,0,0.8
			C131,28.3,130.9,28.6,130.6,28.9z M127.8,21.1c-0.1-0.6-0.2-1.3-0.3-1.8l-0.1-0.9l-0.2-1c-0.1-0.3-0.2-0.6-0.2-0.9
			c-0.1-0.3-0.2-0.6-0.3-0.9c0,0,0,0,0-0.1c0-0.1-0.1-0.1-0.1-0.1c-0.1,0-0.3,0.1-0.5,0.3c-0.2,0.2-0.4,0.4-0.6,0.7
			c-0.4,0.6-0.8,1.1-1.2,1.7c-0.4,0.6-0.7,1.3-1,1.9c-0.3,0.7-0.6,1.3-0.8,2c-0.2,0.7-0.5,1.3-0.6,2c1.1,0,2.1-0.1,3.2-0.3
			c1-0.1,2.1-0.3,3.1-0.6C127.9,22.4,127.8,21.8,127.8,21.1z"/>
		<path class="st10" d="M145.9,27.7c-0.5,0.5-1,0.9-1.7,1.1c-0.7,0.3-1.4,0.5-2.1,0.5c-0.8,0.1-1.5,0.1-2.2,0.1
			c-0.7,0-1.4-0.1-2.1-0.3c-0.7-0.2-1.3-0.4-1.8-0.7c-0.5-0.3-0.9-0.6-1.2-1c-0.3-0.4-0.5-0.8-0.5-1.2c0-0.3,0.1-0.5,0.4-0.7
			c0.3-0.2,0.6-0.3,0.9-0.3c0.4,0,0.7,0.1,0.9,0.4l0.2,0.2c0,0.1,0.1,0.1,0.2,0.2c0.1,0.1,0.3,0.3,0.4,0.4c0,0,0.1,0.1,0.2,0.2
			c0,0,0.1,0.1,0.2,0.2c0.1,0.1,0.3,0.3,0.5,0.3c0.2,0.1,0.4,0.2,0.7,0.3c0.3,0.1,0.7,0.1,1.2,0.1c0.2,0,0.6,0,1,0
			c0.4,0,0.9-0.1,1.3-0.2c0.4-0.1,0.8-0.3,1.1-0.5c0.3-0.2,0.5-0.4,0.5-0.8c0-0.3-0.1-0.6-0.4-0.9c-0.3-0.3-0.6-0.5-1.1-0.8
			c-0.5-0.3-1-0.5-1.6-0.8c-0.6-0.3-1.2-0.6-1.8-0.9c-0.5-0.3-1.1-0.6-1.6-0.9c-0.5-0.3-1-0.7-1.4-1.1c-0.4-0.4-0.7-0.8-1-1.3
			s-0.4-1.1-0.4-1.7c0-0.8,0.1-1.5,0.5-2.1c0.3-0.6,0.7-1,1.2-1.4c0.5-0.3,1.2-0.6,1.9-0.8c0.7-0.1,1.5-0.2,2.3-0.2
			c0.3,0,0.7,0,1.2,0.1c0.4,0.1,0.8,0.2,1.1,0.3c0.3,0.1,0.6,0.3,0.9,0.5c0.3,0.2,0.6,0.5,1,0.7c0.3,0.3,0.6,0.6,0.8,0.9
			c0.2,0.3,0.3,0.6,0.3,0.9s-0.1,0.6-0.3,0.8c-0.2,0.3-0.5,0.4-0.8,0.4c-0.4,0-0.7,0-0.9-0.2c-0.2-0.1-0.3-0.3-0.4-0.5l-0.1-0.3
			c0-0.1-0.1-0.2-0.1-0.3c0-0.1-0.1-0.1-0.1-0.2s-0.1-0.2-0.2-0.2c-0.3-0.3-0.6-0.5-1.1-0.7c-0.4-0.1-0.9-0.2-1.3-0.2
			c-0.4,0-0.8,0-1.1,0.1c-0.3,0.1-0.6,0.2-0.9,0.4c-0.3,0.2-0.5,0.4-0.6,0.7c-0.1,0.3-0.2,0.6-0.2,0.9c0,0.9,0.2,1.6,0.8,2.2
			c0.5,0.6,1.2,1.1,1.9,1.6c0.6,0.4,1.3,0.7,2,1c0.7,0.3,1.4,0.7,2,1c0.6,0.4,1.1,0.8,1.5,1.2c0.4,0.4,0.6,1,0.6,1.6
			C146.6,26.5,146.3,27.2,145.9,27.7z"/>
		<path class="st10" d="M163,29c-0.3,0.1-0.6,0.2-0.9,0.2c-0.2,0-0.4,0-0.5-0.1c-0.2,0-0.3-0.1-0.5-0.2c-0.6-0.4-1.2-0.8-1.7-1.3
			c-0.6-0.5-1.2-1-1.8-1.6c-0.6-0.6-1.2-1.1-1.7-1.7c-0.6-0.6-1.1-1.2-1.6-1.7c-0.3,0.3-0.6,0.6-0.9,0.8c-0.3,0.3-0.6,0.5-0.8,0.7
			c0,0.4,0.1,0.8,0.1,1.3c0,0.5,0.1,0.9,0.2,1.2c0,0.1,0,0.2,0.1,0.4c0,0.1,0.1,0.2,0.1,0.2c0,0.1,0.1,0.2,0.1,0.2
			c0,0.1,0.1,0.3,0.2,0.4c0,0.1,0.1,0.3,0.1,0.4c0,0.3-0.1,0.6-0.4,0.8c-0.2,0.2-0.6,0.3-1,0.3c-0.6,0-1-0.2-1.2-0.7
			c-0.1-0.2-0.2-0.6-0.3-1.1c-0.1-0.5-0.2-1-0.3-1.6c-0.1-0.6-0.2-1.3-0.2-2s-0.1-1.4-0.1-2.1c0-1.1,0-2.1,0.1-3.1
			c0.1-1,0.2-2,0.4-3c0-0.3,0.1-0.6,0.1-0.9c0-0.3,0.1-0.6,0.2-0.9c0.1-0.2,0.3-0.5,0.5-0.6c0.2-0.1,0.5-0.2,0.8-0.2
			c0.2,0,0.3,0,0.5,0.1c0.1,0.1,0.3,0.2,0.4,0.3c0.1,0.1,0.2,0.3,0.3,0.4c0.1,0.2,0.1,0.3,0.1,0.5c0,0.1,0,0.3-0.1,0.4
			c-0.1,0.1-0.2,0.2-0.2,0.4l-0.1,0.2c0,0-0.1,0.1-0.1,0.2c0,0.1-0.1,0.1-0.1,0.2l-0.1,0.1c-0.3,0.9-0.4,1.8-0.5,2.8
			c-0.1,1-0.1,2-0.1,2.9c1-1.1,2-2.2,3-3.2s2.1-2.1,3.2-3c0,0,0.2-0.1,0.3-0.2c0.1-0.1,0.3-0.2,0.4-0.3c0.1-0.1,0.3-0.2,0.4-0.2
			c0.1,0,0.3-0.1,0.4-0.1c0.5,0,0.9,0.1,1.2,0.4c0.3,0.2,0.5,0.6,0.5,1c0,0.1-0.1,0.2-0.2,0.3c-0.2,0.1-0.4,0.3-0.6,0.4
			c-0.1,0.1-0.2,0.1-0.3,0.2l-0.3,0.1c-0.2,0.1-0.3,0.2-0.4,0.2c-0.6,0.4-1.2,0.9-1.7,1.3c-0.5,0.5-1.1,1-1.6,1.5
			c-0.1,0.1-0.3,0.3-0.5,0.5c-0.2,0.2-0.5,0.5-0.8,0.8c0.2,0.3,0.5,0.6,0.7,0.8c0.2,0.2,0.5,0.5,0.8,0.7l0.8,0.7
			c0.3,0.2,0.5,0.5,0.8,0.7c0.7,0.6,1.4,1.2,2.1,1.8c0.7,0.6,1.5,1.1,2.2,1.7c0.2,0.2,0.4,0.4,0.4,0.7C163.4,28.6,163.3,28.9,163,29
			z"/>
	</g>
	<rect x="-10.4" y="-53.7" style="fill:none;" width="87.5" height="25.5"/>
	<text transform="matrix(1 0 0 1 -10.3987 -45.1587)" class="st0"><tspan x="0" y="0" style="display:inline; font-family:'Noteworthy-Light'; font-size:10px;">BAY AREA</tspan><tspan x="0" y="12" style="display:inline; font-family:'Noteworthy-Light'; font-size:10px;">SEA KAYAKERS</tspan></text>
	<g>
		<path class="st9" d="M55.7,64c-0.2,0.2-0.5,0.4-0.8,0.6c-0.3,0.1-0.7,0.2-1.1,0.3c-0.4,0-0.7,0.1-1.1,0.1c-0.4,0-0.7,0-1-0.1
			s-0.6-0.2-0.9-0.4c-0.3-0.1-0.5-0.3-0.6-0.5c-0.2-0.2-0.2-0.4-0.2-0.6c0-0.1,0.1-0.3,0.2-0.4c0.1-0.1,0.3-0.2,0.4-0.2
			c0.2,0,0.3,0.1,0.5,0.2l0.1,0.1c0,0,0,0.1,0.1,0.1c0.1,0.1,0.1,0.1,0.2,0.2c0,0,0.1,0.1,0.1,0.1c0,0,0,0.1,0.1,0.1
			c0.1,0.1,0.1,0.1,0.2,0.2c0.1,0.1,0.2,0.1,0.4,0.1c0.2,0,0.3,0.1,0.6,0.1c0.1,0,0.3,0,0.5,0c0.2,0,0.4-0.1,0.6-0.1
			c0.2,0,0.4-0.1,0.6-0.2c0.2-0.1,0.2-0.2,0.2-0.4c0-0.2-0.1-0.3-0.2-0.5c-0.1-0.1-0.3-0.3-0.6-0.4c-0.2-0.1-0.5-0.3-0.8-0.4
			c-0.3-0.1-0.6-0.3-0.9-0.5c-0.3-0.1-0.5-0.3-0.8-0.5c-0.3-0.2-0.5-0.3-0.7-0.6c-0.2-0.2-0.4-0.4-0.5-0.7c-0.1-0.3-0.2-0.5-0.2-0.8
			c0-0.4,0.1-0.7,0.2-1c0.1-0.3,0.4-0.5,0.6-0.7c0.3-0.2,0.6-0.3,0.9-0.4c0.3-0.1,0.7-0.1,1.1-0.1c0.2,0,0.4,0,0.6,0
			c0.2,0,0.4,0.1,0.6,0.1c0.1,0.1,0.3,0.1,0.5,0.2c0.2,0.1,0.3,0.2,0.5,0.4c0.1,0.1,0.3,0.3,0.4,0.4c0.1,0.2,0.2,0.3,0.2,0.5
			c0,0.1-0.1,0.3-0.2,0.4c-0.1,0.1-0.3,0.2-0.4,0.2c-0.2,0-0.3,0-0.4-0.1c-0.1-0.1-0.2-0.2-0.2-0.3l-0.1-0.1c0,0,0-0.1-0.1-0.2
			c0,0,0-0.1-0.1-0.1s-0.1-0.1-0.1-0.1c-0.1-0.1-0.3-0.3-0.5-0.3c-0.2-0.1-0.4-0.1-0.6-0.1c-0.2,0-0.4,0-0.6,0.1
			c-0.2,0-0.3,0.1-0.5,0.2c-0.1,0.1-0.2,0.2-0.3,0.3c-0.1,0.1-0.1,0.3-0.1,0.5c0,0.4,0.1,0.8,0.4,1.1c0.3,0.3,0.6,0.6,1,0.8
			c0.3,0.2,0.7,0.4,1,0.5c0.4,0.2,0.7,0.3,1,0.5c0.3,0.2,0.6,0.4,0.8,0.6c0.2,0.2,0.3,0.5,0.3,0.8C56,63.4,55.9,63.8,55.7,64z"/>
		<path class="st9" d="M63.6,57.6c-0.1,0.1-0.2,0.2-0.3,0.2c-0.3,0-0.7,0.1-1.1,0.1c-0.4,0-0.8,0-1.1,0c-0.3,0-0.6,0-0.8,0
			c-0.3,0-0.5,0-0.8,0.1c0,0.8,0,1.5-0.1,2.2l0.5,0l0.5,0l0.5,0c0.2,0,0.3,0,0.4,0c0.2,0,0.3,0,0.4,0c0.1,0,0.3,0,0.4,0
			c0.2,0,0.3,0,0.4,0.1c0.1,0.1,0.2,0.2,0.2,0.4c0,0.2-0.1,0.3-0.2,0.4C62.5,61,62.3,61,62.2,61c-0.2,0-0.5,0-0.7,0.1
			c-0.3,0-0.5,0-0.7,0.1c-0.3,0-0.5,0-0.7,0.1c-0.3,0-0.5,0-0.7,0c0,0.3-0.1,0.6-0.1,0.9c0,0.3,0,0.6,0,0.9c0,0.2,0,0.3,0.1,0.4
			c0.1,0.1,0.2,0.2,0.3,0.2c0.1,0.1,0.3,0.1,0.5,0.1c0.2,0,0.3,0,0.5,0c0.2,0,0.4,0,0.6,0c0.2,0,0.4,0,0.6-0.1l0.3,0
			c0.1,0,0.2,0,0.3-0.1c0.1,0,0.2,0,0.3,0c0.1,0,0.2,0,0.3,0c0.1,0,0.2,0,0.3,0.1c0.1,0,0.2,0.1,0.3,0.1c0.1,0.1,0.2,0.1,0.2,0.2
			c0.1,0.1,0.1,0.2,0.1,0.2c0,0.1,0,0.2-0.1,0.2c-0.1,0.1-0.1,0.1-0.2,0.2c-0.1,0-0.2,0.1-0.3,0.1c-0.1,0-0.2,0-0.2,0
			c-0.4,0-0.7,0.1-1.1,0.1c-0.4,0-0.7,0-1.1,0c-0.2,0-0.4,0-0.7,0c-0.3,0-0.5-0.1-0.8-0.2c-0.3-0.1-0.5-0.2-0.7-0.3
			c-0.2-0.1-0.4-0.3-0.5-0.5C58,63.7,58,63.6,58,63.4c0-0.1,0-0.3,0-0.4c0-0.1,0-0.3,0-0.4l0-0.5c0-0.2,0-0.3,0-0.5
			c0-0.1,0-0.2,0-0.3h-0.2c-0.1,0-0.3,0-0.4-0.1c-0.1-0.1-0.1-0.2-0.1-0.4c0-0.1,0-0.2,0.2-0.3s0.2-0.1,0.3-0.2H58c0,0,0,0,0.1,0
			h0.1l0-0.6l0-0.6l0-0.6c0-0.2,0-0.4,0-0.6c-0.1,0-0.2-0.1-0.3-0.2c-0.1-0.1-0.1-0.2-0.1-0.3c0-0.1,0-0.1,0-0.2
			c0-0.1,0.1-0.1,0.2-0.2c0.1-0.1,0.4-0.1,0.6-0.1c0.3,0,0.6,0,0.9-0.1c0.3,0,0.7,0,1,0l1.1,0l0.4,0l0.4,0c0.1,0,0.3,0,0.4,0
			c0.1,0,0.2,0,0.3,0c0.2,0,0.3,0,0.4,0.1c0.1,0.1,0.2,0.2,0.2,0.4C63.7,57.3,63.7,57.5,63.6,57.6z"/>
		<path class="st9" d="M71.9,64.6c-0.1,0.2-0.3,0.3-0.5,0.3c-0.1,0-0.2,0-0.3,0c-0.1,0-0.2-0.1-0.3-0.1c-0.1,0-0.1-0.1-0.2-0.2
			c-0.1-0.1-0.1-0.1-0.1-0.2c0-0.1,0-0.2,0-0.2c0-0.1,0-0.1,0.1-0.2c0-0.1,0-0.1,0.1-0.2c0-0.1,0-0.1,0-0.2v-0.2l0-0.3
			c0-0.1,0-0.2,0-0.2c0-0.1,0-0.2,0-0.2c-0.3,0.1-0.6,0.1-0.9,0.2c-0.3,0-0.6,0.1-0.9,0.1c-0.3,0-0.6,0.1-0.9,0.1
			c-0.3,0-0.6,0-0.9,0.1c0,0.3-0.1,0.5-0.1,0.8c0,0.3,0,0.6,0,0.8c0,0.1-0.1,0.3-0.2,0.4c-0.1,0.1-0.3,0.2-0.4,0.2
			c-0.1,0-0.1,0-0.2,0c-0.1,0-0.2,0-0.3-0.1c-0.1,0-0.2-0.1-0.2-0.1c-0.1,0-0.1-0.1-0.1-0.2c0-0.1,0-0.3,0-0.4c0-0.1,0-0.3,0.1-0.5
			c0-0.1,0.1-0.3,0.1-0.4c0-0.1,0.1-0.3,0.1-0.4c-0.1,0-0.2,0-0.3,0c-0.1,0-0.2,0-0.2-0.1c-0.1,0-0.1-0.1-0.2-0.2
			c0-0.1-0.1-0.2-0.1-0.3c0,0,0-0.1,0-0.1l0.1-0.2c0,0,0,0,0-0.1c0.1-0.1,0.2-0.2,0.4-0.2c0.1,0,0.2,0,0.3,0c0.1,0,0.1,0,0.2,0.1
			c0-0.2,0.1-0.5,0.3-0.8c0.1-0.3,0.3-0.7,0.4-1.1c0.2-0.4,0.3-0.8,0.6-1.2c0.2-0.4,0.4-0.8,0.7-1.1c0.2-0.3,0.5-0.6,0.8-0.8
			c0.3-0.2,0.5-0.3,0.8-0.3c0.2,0,0.4,0,0.5,0.1c0.1,0.1,0.3,0.2,0.4,0.3c0.1,0.1,0.2,0.3,0.3,0.4c0.1,0.2,0.1,0.3,0.2,0.4
			c0.1,0.3,0.2,0.5,0.2,0.8l0.2,0.9c0,0.3,0.1,0.6,0.1,0.9l0.1,0.8c0,0.3,0.1,0.6,0.1,0.9c0,0.3,0.1,0.6,0.1,0.8c0,0.3,0,0.5,0,0.6
			c0,0.2,0,0.3,0,0.4C72.1,64.3,72,64.5,71.9,64.6z M70.4,60.7c0-0.3-0.1-0.6-0.2-0.9l-0.1-0.5l-0.1-0.5c0-0.2-0.1-0.3-0.1-0.5
			c0-0.1-0.1-0.3-0.2-0.5c0,0,0,0,0-0.1c0,0,0-0.1,0-0.1c-0.1,0-0.1,0-0.2,0.1c-0.1,0.1-0.2,0.2-0.3,0.3c-0.2,0.3-0.4,0.6-0.6,0.9
			c-0.2,0.3-0.3,0.6-0.5,1c-0.1,0.3-0.3,0.7-0.4,1c-0.1,0.3-0.2,0.7-0.3,1c0.5,0,1.1,0,1.6-0.1c0.5-0.1,1-0.2,1.6-0.3
			C70.5,61.4,70.5,61.1,70.4,60.7z"/>
		<path class="st9" d="M83.3,64.7c-0.1,0.1-0.3,0.1-0.4,0.1c-0.1,0-0.2,0-0.3,0c-0.1,0-0.2,0-0.2-0.1c-0.3-0.2-0.6-0.4-0.9-0.7
			c-0.3-0.3-0.6-0.5-0.9-0.8c-0.3-0.3-0.6-0.6-0.9-0.9c-0.3-0.3-0.5-0.6-0.8-0.8c-0.1,0.1-0.3,0.3-0.4,0.4c-0.2,0.1-0.3,0.3-0.4,0.4
			c0,0.2,0,0.4,0.1,0.7c0,0.3,0.1,0.5,0.1,0.6c0,0,0,0.1,0.1,0.2c0,0,0,0.1,0.1,0.1c0,0,0,0.1,0.1,0.1c0,0.1,0.1,0.1,0.1,0.2
			c0,0.1,0,0.1,0,0.2c0,0.2-0.1,0.3-0.2,0.4c-0.1,0.1-0.3,0.1-0.5,0.1c-0.3,0-0.5-0.1-0.6-0.4c0-0.1-0.1-0.3-0.1-0.5
			c-0.1-0.2-0.1-0.5-0.1-0.8c0-0.3-0.1-0.6-0.1-1c0-0.3,0-0.7,0-1c0-0.5,0-1,0.1-1.6c0-0.5,0.1-1,0.2-1.5c0-0.1,0-0.3,0.1-0.4
			c0-0.1,0-0.3,0.1-0.4c0-0.1,0.1-0.2,0.3-0.3c0.1-0.1,0.3-0.1,0.4-0.1c0.1,0,0.2,0,0.3,0.1c0.1,0,0.1,0.1,0.2,0.2
			c0.1,0.1,0.1,0.1,0.2,0.2c0,0.1,0.1,0.2,0.1,0.2s0,0.1,0,0.2c0,0.1-0.1,0.1-0.1,0.2l-0.1,0.1c0,0,0,0.1-0.1,0.1c0,0,0,0.1,0,0.1
			l0,0.1c-0.1,0.4-0.2,0.9-0.2,1.4c0,0.5,0,1,0,1.5c0.5-0.5,1-1.1,1.5-1.6c0.5-0.5,1-1,1.6-1.5c0,0,0.1-0.1,0.2-0.1
			c0.1,0,0.1-0.1,0.2-0.1c0.1,0,0.1-0.1,0.2-0.1c0.1,0,0.1,0,0.2,0c0.3,0,0.5,0.1,0.6,0.2c0.1,0.1,0.2,0.3,0.2,0.5
			c0,0,0,0.1-0.1,0.2c-0.1,0.1-0.2,0.1-0.3,0.2c-0.1,0-0.1,0.1-0.2,0.1l-0.1,0.1c-0.1,0-0.2,0.1-0.2,0.1c-0.3,0.2-0.6,0.4-0.9,0.7
			c-0.3,0.2-0.5,0.5-0.8,0.7c-0.1,0.1-0.2,0.1-0.3,0.3c-0.1,0.1-0.2,0.3-0.4,0.4c0.1,0.1,0.2,0.3,0.3,0.4c0.1,0.1,0.2,0.2,0.4,0.4
			l0.4,0.4c0.1,0.1,0.3,0.2,0.4,0.3c0.3,0.3,0.7,0.6,1.1,0.9c0.4,0.3,0.7,0.6,1.1,0.8c0.1,0.1,0.2,0.2,0.2,0.3
			C83.5,64.5,83.4,64.6,83.3,64.7z"/>
		<path class="st9" d="M90.7,64.6c-0.1,0.2-0.3,0.3-0.5,0.3c-0.1,0-0.2,0-0.3,0c-0.1,0-0.2-0.1-0.3-0.1c-0.1,0-0.1-0.1-0.2-0.2
			c-0.1-0.1-0.1-0.1-0.1-0.2c0-0.1,0-0.2,0-0.2c0-0.1,0-0.1,0.1-0.2c0-0.1,0-0.1,0.1-0.2c0-0.1,0-0.1,0-0.2v-0.2l0-0.3
			c0-0.1,0-0.2,0-0.2c0-0.1,0-0.2,0-0.2c-0.3,0.1-0.6,0.1-0.9,0.2c-0.3,0-0.6,0.1-0.9,0.1c-0.3,0-0.6,0.1-0.9,0.1
			c-0.3,0-0.6,0-0.9,0.1c0,0.3-0.1,0.5-0.1,0.8c0,0.3,0,0.6,0,0.8c0,0.1-0.1,0.3-0.2,0.4c-0.1,0.1-0.3,0.2-0.4,0.2
			c-0.1,0-0.1,0-0.2,0c-0.1,0-0.2,0-0.3-0.1c-0.1,0-0.2-0.1-0.2-0.1c-0.1,0-0.1-0.1-0.1-0.2c0-0.1,0-0.3,0-0.4c0-0.1,0-0.3,0.1-0.5
			c0-0.1,0.1-0.3,0.1-0.4c0-0.1,0.1-0.3,0.1-0.4c-0.1,0-0.2,0-0.3,0c-0.1,0-0.2,0-0.2-0.1c-0.1,0-0.1-0.1-0.2-0.2
			c0-0.1-0.1-0.2-0.1-0.3c0,0,0-0.1,0-0.1l0.1-0.2c0,0,0,0,0-0.1c0.1-0.1,0.2-0.2,0.4-0.2c0.1,0,0.2,0,0.3,0c0.1,0,0.1,0,0.2,0.1
			c0-0.2,0.1-0.5,0.3-0.8c0.1-0.3,0.3-0.7,0.4-1.1c0.2-0.4,0.3-0.8,0.6-1.2c0.2-0.4,0.4-0.8,0.7-1.1c0.2-0.3,0.5-0.6,0.8-0.8
			c0.3-0.2,0.5-0.3,0.8-0.3c0.2,0,0.4,0,0.5,0.1c0.1,0.1,0.3,0.2,0.4,0.3c0.1,0.1,0.2,0.3,0.3,0.4c0.1,0.2,0.1,0.3,0.2,0.4
			c0.1,0.3,0.2,0.5,0.2,0.8l0.2,0.9c0,0.3,0.1,0.6,0.1,0.9l0.1,0.8c0,0.3,0.1,0.6,0.1,0.9c0,0.3,0.1,0.6,0.1,0.8c0,0.3,0,0.5,0,0.6
			c0,0.2,0,0.3,0,0.4C90.9,64.3,90.8,64.5,90.7,64.6z M89.3,60.7c0-0.3-0.1-0.6-0.2-0.9L89,59.4l-0.1-0.5c0-0.2-0.1-0.3-0.1-0.5
			c0-0.1-0.1-0.3-0.2-0.5c0,0,0,0,0-0.1c0,0,0-0.1,0-0.1c-0.1,0-0.1,0-0.2,0.1c-0.1,0.1-0.2,0.2-0.3,0.3c-0.2,0.3-0.4,0.6-0.6,0.9
			c-0.2,0.3-0.3,0.6-0.5,1c-0.1,0.3-0.3,0.7-0.4,1c-0.1,0.3-0.2,0.7-0.3,1c0.5,0,1.1,0,1.6-0.1c0.5-0.1,1-0.2,1.6-0.3
			C89.3,61.4,89.3,61.1,89.3,60.7z"/>
		<path class="st9" d="M98.7,57.3c0,0,0,0.1,0,0.1c0,0,0,0.1,0,0.1c0,0,0,0,0,0.1l-0.1,0.1c0,0.1-0.1,0.1-0.1,0.1
			c-0.4,0.7-0.7,1.4-1.1,2.1c-0.4,0.7-0.8,1.4-1.2,2.1c-0.2,0.4-0.5,0.9-0.7,1.3c-0.2,0.4-0.5,0.8-0.7,1.3c-0.1,0.1-0.2,0.3-0.3,0.4
			c-0.1,0.1-0.2,0.3-0.3,0.4c-0.1,0.1-0.3,0.2-0.4,0.2c-0.2,0-0.4-0.1-0.5-0.3c-0.1-0.2-0.2-0.3-0.2-0.5v-0.1c0,0,0,0,0-0.1
			c0-0.1,0.1-0.2,0.2-0.3c0.1-0.1,0.2-0.3,0.3-0.5c0.1-0.2,0.2-0.3,0.3-0.5c0.1-0.1,0.2-0.3,0.2-0.3c0.1-0.2,0.2-0.3,0.3-0.5
			c0.1-0.2,0.2-0.3,0.3-0.5c-0.3-0.3-0.5-0.7-0.7-1c-0.2-0.3-0.4-0.6-0.6-1c-0.2-0.3-0.3-0.6-0.5-1c-0.1-0.3-0.3-0.7-0.4-1.1
			c0,0,0,0,0-0.1c0,0,0,0,0-0.1l0-0.1l0-0.1l-0.1-0.2c0,0,0-0.1,0-0.1c0-0.1,0-0.2,0.1-0.2c0-0.1,0.1-0.1,0.2-0.2
			c0.1,0,0.2-0.1,0.3-0.1c0.1,0,0.2,0,0.2,0c0.2,0,0.3,0,0.5,0.1c0.1,0.1,0.2,0.2,0.3,0.4l0.2,1.1c0.1,0.4,0.2,0.7,0.3,1.1
			c0,0.1,0.1,0.3,0.2,0.4c0.1,0.1,0.1,0.3,0.2,0.4c0.1,0.1,0.2,0.2,0.2,0.3c0.1,0.1,0.2,0.2,0.2,0.3c0.2-0.4,0.5-0.8,0.7-1.3
			c0.2-0.4,0.5-0.8,0.7-1.3c0.1-0.1,0.1-0.2,0.2-0.3s0.1-0.2,0.1-0.4c0-0.1,0.1-0.2,0.2-0.4c0-0.1,0.1-0.2,0.2-0.3
			c0-0.1,0.1-0.2,0.3-0.2c0.1-0.1,0.2-0.1,0.4-0.1c0.1,0,0.3,0.1,0.5,0.2C98.6,56.9,98.7,57,98.7,57.3
			C98.7,57.2,98.7,57.2,98.7,57.3z"/>
		<path class="st9" d="M104.9,64.6c-0.1,0.2-0.3,0.3-0.5,0.3c-0.1,0-0.2,0-0.3,0c-0.1,0-0.2-0.1-0.3-0.1c-0.1,0-0.1-0.1-0.2-0.2
			c-0.1-0.1-0.1-0.1-0.1-0.2c0-0.1,0-0.2,0-0.2c0-0.1,0-0.1,0.1-0.2c0-0.1,0-0.1,0.1-0.2c0-0.1,0-0.1,0-0.2v-0.2l0-0.3
			c0-0.1,0-0.2,0-0.2c0-0.1,0-0.2,0-0.2c-0.3,0.1-0.6,0.1-0.9,0.2c-0.3,0-0.6,0.1-0.9,0.1c-0.3,0-0.6,0.1-0.9,0.1
			c-0.3,0-0.6,0-0.9,0.1c0,0.3-0.1,0.5-0.1,0.8c0,0.3,0,0.6,0,0.8c0,0.1-0.1,0.3-0.2,0.4c-0.1,0.1-0.3,0.2-0.4,0.2
			c-0.1,0-0.1,0-0.2,0c-0.1,0-0.2,0-0.3-0.1c-0.1,0-0.2-0.1-0.2-0.1c-0.1,0-0.1-0.1-0.1-0.2c0-0.1,0-0.3,0-0.4c0-0.1,0-0.3,0.1-0.5
			c0-0.1,0.1-0.3,0.1-0.4c0-0.1,0.1-0.3,0.1-0.4c-0.1,0-0.2,0-0.3,0c-0.1,0-0.2,0-0.2-0.1c-0.1,0-0.1-0.1-0.2-0.2
			c0-0.1-0.1-0.2-0.1-0.3c0,0,0-0.1,0-0.1l0.1-0.2c0,0,0,0,0-0.1c0.1-0.1,0.2-0.2,0.4-0.2c0.1,0,0.2,0,0.3,0c0.1,0,0.1,0,0.2,0.1
			c0-0.2,0.1-0.5,0.3-0.8c0.1-0.3,0.3-0.7,0.4-1.1c0.2-0.4,0.3-0.8,0.6-1.2c0.2-0.4,0.4-0.8,0.7-1.1c0.2-0.3,0.5-0.6,0.8-0.8
			c0.3-0.2,0.5-0.3,0.8-0.3c0.2,0,0.4,0,0.5,0.1c0.1,0.1,0.3,0.2,0.4,0.3c0.1,0.1,0.2,0.3,0.3,0.4c0.1,0.2,0.1,0.3,0.2,0.4
			c0.1,0.3,0.2,0.5,0.2,0.8l0.2,0.9c0,0.3,0.1,0.6,0.1,0.9l0.1,0.8c0,0.3,0.1,0.6,0.1,0.9c0,0.3,0.1,0.6,0.1,0.8c0,0.3,0,0.5,0,0.6
			c0,0.2,0,0.3,0,0.4C105.1,64.3,105,64.5,104.9,64.6z M103.5,60.7c0-0.3-0.1-0.6-0.2-0.9l-0.1-0.5l-0.1-0.5c0-0.2-0.1-0.3-0.1-0.5
			c0-0.1-0.1-0.3-0.2-0.5c0,0,0,0,0-0.1c0,0,0-0.1,0-0.1c-0.1,0-0.1,0-0.2,0.1c-0.1,0.1-0.2,0.2-0.3,0.3c-0.2,0.3-0.4,0.6-0.6,0.9
			c-0.2,0.3-0.3,0.6-0.5,1c-0.1,0.3-0.3,0.7-0.4,1c-0.1,0.3-0.2,0.7-0.3,1c0.5,0,1.1,0,1.6-0.1c0.5-0.1,1-0.2,1.6-0.3
			C103.6,61.4,103.5,61.1,103.5,60.7z"/>
		<path class="st9" d="M113.3,64.7c-0.1,0.1-0.3,0.1-0.4,0.1c-0.1,0-0.2,0-0.3,0c-0.1,0-0.2,0-0.2-0.1c-0.3-0.2-0.6-0.4-0.9-0.7
			c-0.3-0.3-0.6-0.5-0.9-0.8c-0.3-0.3-0.6-0.6-0.9-0.9c-0.3-0.3-0.5-0.6-0.8-0.8c-0.1,0.1-0.3,0.3-0.4,0.4c-0.2,0.1-0.3,0.3-0.4,0.4
			c0,0.2,0,0.4,0.1,0.7c0,0.3,0.1,0.5,0.1,0.6c0,0,0,0.1,0.1,0.2c0,0,0,0.1,0.1,0.1c0,0,0,0.1,0.1,0.1c0,0.1,0.1,0.1,0.1,0.2
			c0,0.1,0,0.1,0,0.2c0,0.2-0.1,0.3-0.2,0.4c-0.1,0.1-0.3,0.1-0.5,0.1c-0.3,0-0.5-0.1-0.6-0.4c0-0.1-0.1-0.3-0.1-0.5
			c-0.1-0.2-0.1-0.5-0.1-0.8c0-0.3-0.1-0.6-0.1-1c0-0.3,0-0.7,0-1c0-0.5,0-1,0.1-1.6c0-0.5,0.1-1,0.2-1.5c0-0.1,0-0.3,0.1-0.4
			c0-0.1,0-0.3,0.1-0.4c0-0.1,0.1-0.2,0.3-0.3c0.1-0.1,0.3-0.1,0.4-0.1c0.1,0,0.2,0,0.3,0.1c0.1,0,0.1,0.1,0.2,0.2
			c0.1,0.1,0.1,0.1,0.2,0.2c0,0.1,0.1,0.2,0.1,0.2s0,0.1,0,0.2c0,0.1-0.1,0.1-0.1,0.2l-0.1,0.1c0,0,0,0.1-0.1,0.1c0,0,0,0.1,0,0.1
			l0,0.1c-0.1,0.4-0.2,0.9-0.2,1.4c0,0.5,0,1,0,1.5c0.5-0.5,1-1.1,1.5-1.6c0.5-0.5,1-1,1.6-1.5c0,0,0.1-0.1,0.2-0.1
			c0.1,0,0.1-0.1,0.2-0.1c0.1,0,0.1-0.1,0.2-0.1c0.1,0,0.1,0,0.2,0c0.3,0,0.5,0.1,0.6,0.2c0.1,0.1,0.2,0.3,0.2,0.5
			c0,0,0,0.1-0.1,0.2c-0.1,0.1-0.2,0.1-0.3,0.2c-0.1,0-0.1,0.1-0.2,0.1l-0.1,0.1c-0.1,0-0.2,0.1-0.2,0.1c-0.3,0.2-0.6,0.4-0.9,0.7
			c-0.3,0.2-0.5,0.5-0.8,0.7c-0.1,0.1-0.2,0.1-0.3,0.3c-0.1,0.1-0.2,0.3-0.4,0.4c0.1,0.1,0.2,0.3,0.3,0.4c0.1,0.1,0.2,0.2,0.4,0.4
			l0.4,0.4c0.1,0.1,0.3,0.2,0.4,0.3c0.3,0.3,0.7,0.6,1.1,0.9c0.4,0.3,0.7,0.6,1.1,0.8c0.1,0.1,0.2,0.2,0.2,0.3
			C113.5,64.5,113.4,64.6,113.3,64.7z"/>
		<path class="st9" d="M120.6,57.6c-0.1,0.1-0.2,0.2-0.3,0.2c-0.3,0-0.7,0.1-1.1,0.1c-0.4,0-0.8,0-1.1,0c-0.3,0-0.6,0-0.8,0
			c-0.3,0-0.5,0-0.8,0.1c0,0.8,0,1.5-0.1,2.2l0.5,0l0.5,0l0.5,0c0.2,0,0.3,0,0.4,0c0.2,0,0.3,0,0.4,0c0.1,0,0.3,0,0.4,0
			c0.2,0,0.3,0,0.4,0.1c0.1,0.1,0.2,0.2,0.2,0.4c0,0.2-0.1,0.3-0.2,0.4c-0.1,0.1-0.3,0.1-0.4,0.2c-0.2,0-0.5,0-0.7,0.1
			c-0.3,0-0.5,0-0.7,0.1c-0.3,0-0.5,0-0.7,0.1c-0.3,0-0.5,0-0.7,0c0,0.3-0.1,0.6-0.1,0.9s0,0.6,0,0.9c0,0.2,0,0.3,0.1,0.4
			c0.1,0.1,0.2,0.2,0.3,0.2c0.1,0.1,0.3,0.1,0.5,0.1c0.2,0,0.3,0,0.5,0c0.2,0,0.4,0,0.6,0c0.2,0,0.4,0,0.6-0.1l0.3,0
			c0.1,0,0.2,0,0.3-0.1c0.1,0,0.2,0,0.3,0c0.1,0,0.2,0,0.3,0c0.1,0,0.2,0,0.3,0.1s0.2,0.1,0.3,0.1c0.1,0.1,0.2,0.1,0.2,0.2
			c0.1,0.1,0.1,0.2,0.1,0.2c0,0.1,0,0.2-0.1,0.2c-0.1,0.1-0.1,0.1-0.2,0.2c-0.1,0-0.2,0.1-0.3,0.1c-0.1,0-0.2,0-0.2,0
			c-0.4,0-0.7,0.1-1.1,0.1c-0.4,0-0.7,0-1.1,0c-0.2,0-0.4,0-0.7,0c-0.3,0-0.5-0.1-0.8-0.2c-0.3-0.1-0.5-0.2-0.7-0.3
			c-0.2-0.1-0.4-0.3-0.5-0.5c-0.1-0.1-0.1-0.3-0.1-0.4c0-0.1,0-0.3,0-0.4c0-0.1,0-0.3,0-0.4l0-0.5c0-0.2,0-0.3,0-0.5
			c0-0.1,0-0.2,0-0.3H115c-0.1,0-0.3,0-0.4-0.1s-0.1-0.2-0.1-0.4c0-0.1,0-0.2,0.2-0.3s0.2-0.1,0.3-0.2h0.1c0,0,0,0,0.1,0h0.1l0-0.6
			l0-0.6l0-0.6c0-0.2,0-0.4,0-0.6c-0.1,0-0.2-0.1-0.3-0.2c-0.1-0.1-0.1-0.2-0.1-0.3c0-0.1,0-0.1,0-0.2c0-0.1,0.1-0.1,0.2-0.2
			c0.1-0.1,0.4-0.1,0.6-0.1c0.3,0,0.6,0,0.9-0.1c0.3,0,0.7,0,1,0l1.1,0l0.4,0l0.4,0c0.1,0,0.3,0,0.4,0c0.1,0,0.2,0,0.3,0
			c0.2,0,0.3,0,0.4,0.1c0.1,0.1,0.2,0.2,0.2,0.4C120.8,57.3,120.7,57.5,120.6,57.6z"/>
		<path class="st9" d="M128.7,64.8c-0.1,0.1-0.1,0.2-0.2,0.2c-0.1,0.1-0.2,0.1-0.4,0.1c-0.2,0-0.5-0.2-0.8-0.5
			c-0.2-0.1-0.4-0.3-0.6-0.5l-0.7-0.6c-0.2-0.2-0.4-0.3-0.6-0.5s-0.4-0.3-0.6-0.5c-0.2-0.1-0.4-0.3-0.6-0.4
			c-0.2-0.1-0.3-0.2-0.4-0.3l-0.2,0c-0.1,0-0.1,0-0.2,0l0,0.9c0,0.3,0,0.6,0,0.8c0,0.1,0,0.2,0.1,0.3c0,0.1,0.1,0.2,0.1,0.3l0,0.1
			c0,0,0,0.1,0,0.1c0,0.2-0.1,0.3-0.2,0.3c-0.1,0.1-0.2,0.1-0.4,0.1c-0.2,0-0.3,0-0.4-0.1c-0.1-0.1-0.2-0.1-0.3-0.2
			c-0.1-0.1-0.1-0.2-0.1-0.3c0-0.1,0-0.2,0-0.4c0-0.3,0-0.6,0-0.9l0-0.9c-0.1,0-0.3-0.1-0.4-0.2c-0.1-0.1-0.2-0.2-0.2-0.3
			c0-0.1,0-0.2,0.1-0.3c0.1-0.1,0.2-0.1,0.3-0.2c0,0,0,0,0.1,0l0-1v-1.4c0-0.2,0-0.3,0-0.6c-0.1,0-0.3-0.1-0.4-0.2
			c-0.1-0.1-0.1-0.2-0.1-0.4c0-0.1,0-0.2,0.2-0.3c0.1-0.1,0.3-0.1,0.6-0.2c0.1-0.1,0.1-0.2,0.2-0.3c0.1-0.1,0.2-0.1,0.3-0.1
			c0.1,0,0.2,0,0.4,0.1c0.1,0.1,0.2,0.2,0.2,0.3c0.3,0,0.6-0.1,0.9-0.1c0.3,0,0.5,0,0.6,0c0.3,0,0.7,0,1.1,0.1
			c0.4,0.1,0.7,0.2,1,0.3c0.3,0.2,0.6,0.4,0.8,0.6c0.2,0.3,0.3,0.6,0.3,1c0,0.4-0.1,0.7-0.3,1c-0.2,0.3-0.4,0.5-0.7,0.7
			c-0.3,0.2-0.6,0.4-1,0.6c-0.4,0.2-0.8,0.3-1.2,0.4c0.2,0.1,0.4,0.3,0.5,0.4c0.2,0.2,0.3,0.3,0.5,0.4l0.2,0.2
			c0.1,0.1,0.2,0.2,0.3,0.2l0.3,0.2c0.1,0.1,0.2,0.1,0.2,0.2c0.1,0.1,0.1,0.1,0.2,0.2c0.1,0.1,0.1,0.1,0.2,0.2
			c0.3,0.2,0.6,0.4,0.7,0.4c0.1,0,0.1,0,0.1,0l0.1,0c0.1,0.1,0.2,0.2,0.2,0.3C128.8,64.7,128.8,64.8,128.7,64.8z M126.9,58.4
			c-0.1-0.1-0.3-0.2-0.5-0.3c-0.2-0.1-0.4-0.1-0.6-0.1c-0.2,0-0.4,0-0.6,0c-0.6,0-1.1,0.1-1.7,0.2c0,0,0,0.1,0,0.1c0,0,0,0.1,0,0.1
			c0,0.4-0.1,0.8-0.1,1.2v1.3c0,0.1,0,0.1,0,0.2c0.2,0,0.3-0.1,0.5-0.1c0.2,0,0.4-0.1,0.6-0.1l0.6-0.1c0.2,0,0.4-0.1,0.6-0.2
			c0.4-0.1,0.7-0.3,1-0.6c0.2-0.2,0.4-0.6,0.4-0.9C127.1,58.7,127,58.5,126.9,58.4z"/>
		<path class="st9" d="M135.8,64c-0.2,0.2-0.5,0.4-0.8,0.6c-0.3,0.1-0.7,0.2-1.1,0.3c-0.4,0-0.7,0.1-1.1,0.1c-0.4,0-0.7,0-1-0.1
			s-0.6-0.2-0.9-0.4c-0.3-0.1-0.5-0.3-0.6-0.5c-0.2-0.2-0.2-0.4-0.2-0.6c0-0.1,0.1-0.3,0.2-0.4c0.1-0.1,0.3-0.2,0.4-0.2
			c0.2,0,0.3,0.1,0.5,0.2l0.1,0.1c0,0,0,0.1,0.1,0.1c0.1,0.1,0.1,0.1,0.2,0.2c0,0,0.1,0.1,0.1,0.1c0,0,0,0.1,0.1,0.1
			c0.1,0.1,0.1,0.1,0.2,0.2c0.1,0.1,0.2,0.1,0.4,0.1c0.2,0,0.3,0.1,0.6,0.1c0.1,0,0.3,0,0.5,0c0.2,0,0.4-0.1,0.6-0.1
			c0.2,0,0.4-0.1,0.6-0.2c0.2-0.1,0.2-0.2,0.2-0.4c0-0.2-0.1-0.3-0.2-0.5c-0.1-0.1-0.3-0.3-0.6-0.4c-0.2-0.1-0.5-0.3-0.8-0.4
			c-0.3-0.1-0.6-0.3-0.9-0.5c-0.3-0.1-0.5-0.3-0.8-0.5c-0.3-0.2-0.5-0.3-0.7-0.6c-0.2-0.2-0.4-0.4-0.5-0.7s-0.2-0.5-0.2-0.8
			c0-0.4,0.1-0.7,0.2-1c0.1-0.3,0.4-0.5,0.6-0.7c0.3-0.2,0.6-0.3,0.9-0.4c0.3-0.1,0.7-0.1,1.1-0.1c0.2,0,0.4,0,0.6,0
			c0.2,0,0.4,0.1,0.6,0.1c0.1,0.1,0.3,0.1,0.5,0.2c0.2,0.1,0.3,0.2,0.5,0.4c0.1,0.1,0.3,0.3,0.4,0.4c0.1,0.2,0.2,0.3,0.2,0.5
			c0,0.1-0.1,0.3-0.2,0.4c-0.1,0.1-0.3,0.2-0.4,0.2c-0.2,0-0.3,0-0.4-0.1c-0.1-0.1-0.2-0.2-0.2-0.3l-0.1-0.1c0,0,0-0.1-0.1-0.2
			c0,0,0-0.1-0.1-0.1c0,0-0.1-0.1-0.1-0.1c-0.1-0.1-0.3-0.3-0.5-0.3c-0.2-0.1-0.4-0.1-0.6-0.1c-0.2,0-0.4,0-0.6,0.1
			c-0.2,0-0.3,0.1-0.5,0.2c-0.1,0.1-0.2,0.2-0.3,0.3c-0.1,0.1-0.1,0.3-0.1,0.5c0,0.4,0.1,0.8,0.4,1.1c0.3,0.3,0.6,0.6,1,0.8
			c0.3,0.2,0.7,0.4,1,0.5c0.4,0.2,0.7,0.3,1,0.5c0.3,0.2,0.6,0.4,0.8,0.6c0.2,0.2,0.3,0.5,0.3,0.8C136.1,63.4,136,63.8,135.8,64z"/>
	</g>
</g>
</svg>
