<?xml version="1.0" encoding="utf-8"?>
<!-- Generator: Adobe Illustrator 26.3.1, SVG Export Plug-In . SVG Version: 6.00 Build 0)  -->
<svg version="1.1" xmlns="http://www.w3.org/2000/svg" xmlns:xlink="http://www.w3.org/1999/xlink" x="0px" y="0px"
	 viewBox="0 0 200 80" style="enable-background:new 0 0 200 80;" xml:space="preserve">
<style type="text/css">
	.st0{display:none;}
	.st1{display:none;fill:none;stroke:#000000;stroke-width:1.5;stroke-miterlimit:10;}
	.st2{fill:#98E0F5;}
	.st3{fill:none;stroke:#DF004B;stroke-miterlimit:10;}
	.st4{fill:none;stroke:#DF004B;stroke-linecap:round;stroke-linejoin:round;stroke-miterlimit:10;}
	.st5{fill:none;stroke:#DF004B;stroke-width:2;stroke-linecap:round;stroke-linejoin:round;stroke-miterlimit:10;}
	.st6{fill:#00B7E4;}
	.st7{fill:none;stroke:#000000;stroke-width:1.5;stroke-linecap:round;stroke-miterlimit:10;}
	.st8{fill:none;stroke:#000000;stroke-width:1.5;stroke-miterlimit:10;}
	.st9{fill:none;}
	.st10{stroke:#000000;stroke-width:0.25;stroke-miterlimit:10;}
	.st11{font-family:'HannotateTC-W7-B5pc-H';}
	.st12{font-size:12px;}
	.st13{stroke:#000000;stroke-width:0.5;stroke-miterlimit:10;}
	.st14{font-size:24px;}
	.st15{letter-spacing:-1;}
</style>
<g id="Layer_1" class="st0">
	
		<image style="display:inline;overflow:visible;" width="200" height="80" xlink:href="bask_logo_2020_200px-1.png"  transform="matrix(1 0 0 1 0.2724 0)">
	</image>
</g>
<g id="Layer_2">
	<ellipse class="st1" cx="100.2" cy="39.7" rx="97.9" ry="37.9"/>
	<g id="XMLID_00000170981846462173465990000000793266709701862022_">
		<g>
			<path class="st2" d="M184.7,20.7c6.2,6.4,8,13.2,6.2,18.8c-2.2,6.7-11.2,14.1-27.8,13.3c-16.6-0.8-46.6-8.2-77.6-16.9
				s-56.4-12.2-67-6.3C8.7,35,6,47.2,13.9,57.2l-0.1,0.2C6.5,52.1,2.3,46.1,2.3,39.7c0-20.9,43.8-37.9,97.9-37.9
				c36.1,0,67.6,7.6,84.6,18.8L184.7,20.7z"/>
			<g id="GG_Bridge">
				<g>
					<line class="st3" x1="182.6" y1="38.3" x2="182.6" y2="45.4"/>
					<line class="st3" x1="185.8" y1="40.9" x2="185.8" y2="45.4"/>
					<path class="st4" d="M120.5,44.8c4.6-1.4,15.3-6.6,16.6-9c3,2.7,11.9,9.4,21.3,9.4s19.3-7.5,21-9.7c3.4,2.7,6.9,5.9,9.8,6.7"/>
					<path class="st4" d="M123.4,45.7c11.2,0,59.5,0,62.8,0"/>
					<path class="st5" d="M137.1,48c0-3.8,0-11.4,0-12.2"/>
					<path class="st5" d="M179.3,50.4c0-3.4,0-13.8,0-14.7"/>
					<path class="st3" d="M134,38.7c0,2,0,6.5,0,6.5"/>
					<line class="st3" x1="130.5" y1="40.6" x2="130.5" y2="45.4"/>
					<line class="st4" x1="127.2" y1="42.5" x2="127.2" y2="45.5"/>
					<line class="st3" x1="140.3" y1="38.4" x2="140.3" y2="45.7"/>
					<line class="st3" x1="143.7" y1="40.9" x2="143.7" y2="45.4"/>
					<line class="st3" x1="147.1" y1="42.7" x2="147.1" y2="45.7"/>
					<line class="st4" x1="175.5" y1="39" x2="175.5" y2="45.6"/>
					<line class="st3" x1="172.7" y1="41" x2="172.7" y2="45.5"/>
					<line class="st4" x1="168.9" y1="43.1" x2="168.9" y2="45.7"/>
				</g>
			</g>
			<path class="st6" d="M190.9,39.5c1.8-5.6,0-12.4-6.2-18.8l0.1-0.1c8.4,5.6,13.3,12.1,13.3,19c0,20.9-43.8,37.9-97.9,37.9
				c-37.5,0-70-8.2-86.5-20.1l0.1-0.2C6,47.2,8.7,35,18.5,29.6c10.6-5.9,36-2.5,67,6.3s61,16.1,77.6,16.9
				C179.8,53.6,188.8,46.2,190.9,39.5z"/>
		</g>
		<g>
			<path class="st7" d="M13.7,57.4C6.5,52.1,2.3,46.1,2.3,39.7c0-20.9,43.8-37.9,97.9-37.9c36.1,0,67.6,7.6,84.6,18.8"/>
			<path class="st8" d="M184.8,20.6c8.4,5.6,13.3,12.1,13.3,19c0,20.9-43.8,37.9-97.9,37.9c-37.5,0-70-8.2-86.5-20.1"/>
			<path class="st7" d="M13.9,57.2C6,47.2,8.7,35,18.5,29.6c10.6-5.9,36-2.5,67,6.3s61,16.1,77.6,16.9c16.6,0.8,25.6-6.5,27.8-13.3
				c1.8-5.6,0-12.4-6.2-18.8"/>
		</g>
	</g>
	<path d="M60.6,26.5c6.8,1.7,15,4,14.6,2.5c-0.4-1.4-4.3-4.7-6.8-7.5c-1.7-1.9-4.4-6-4.1-7.4c-0.4,0-3.8-0.5-4.9-0.5s-2,0-4.6,0
		s-5.7-1-3.6-2.3c2.1-1.3,5.4,0.5,7.2,1.2c2.6,0.6,11.4,1.6,15.5,2c3.9,0.4,13.5,2,15,2.2c1.2,0,3.4-0.2,5.5,0.5s2.6,2.2,1.5,2.4
		s-6.8-1-8.5-2.2c-1.4-0.4-5.5-1.1-6.6-1.2c0,0,0.7,4.2,0.1,5.4c-0.5,0.5-2.6,2.2-2.7,2.7c-0.1,0.5,0.2,1.9,0.9,2.7
		c0.7,0.8,1.9,2.4,2.2,3.6c1.4,0.2,1.7-1.3,3.4-0.6c2.1,0.8,14,4.1,15.3,4.6c3,1.1,11.6,1.3,11.5,1.7c0.1,0.9-7.4,2.5-11.5,3.2
		c-1.4-0.4-17.6-4.8-20.8-5.9s-18.4-4.4-21.7-4.5c0,0-11.7-7.4-9.1-7.8C50.1,22.5,54.8,25,60.6,26.5z M69.6,20.5
		c0.7,0.4,1.6,0.8,1.8,0.5s0.5-1,0.3-1.4s-1-0.5-1.6-1.5s-0.5-1.9-0.1-3.1c-0.7-0.4-3.5-0.3-4.7-0.4C65.2,15.9,67.3,19.1,69.6,20.5z
		 M74.6,19.6c-0.2,0.7-0.6,0.5-1,0.6s-0.5,1-0.2,1.5s1.3,0.8,1.6,0.8c0.7-0.3,1.3-1,1.7-1.2s2.1-0.2,2.5-1s0.4-4-0.4-4.4
		s-6.4-0.6-5.4,0.1C73.7,16.3,74.8,18.9,74.6,19.6z"/>
	<g>
		<rect x="18.5" y="41.8" class="st9" width="60.8" height="10.9"/>
		<text transform="matrix(1 0 0 1 18.4802 50.0774)"><tspan x="0" y="0" class="st10 st11 st12">B</tspan><tspan x="7.9" y="0" class="st10 st11 st12">A</tspan><tspan x="16.7" y="0" class="st10 st11 st12">Y </tspan><tspan x="26.8" y="0" class="st10 st11 st12">A</tspan><tspan x="34.9" y="0" class="st10 st11 st12">R</tspan><tspan x="42.7" y="0" class="st10 st11 st12">E</tspan><tspan x="50.4" y="0" class="st10 st11 st12">A</tspan></text>
	</g>
	<rect x="-10.4" y="-53.7" class="st9" width="87.5" height="25.5"/>
	<text transform="matrix(1 0 0 1 -10.3987 -45.1587)"><tspan x="0" y="0" style="font-family:'Noteworthy-Light'; font-size:10px;">BAY AREA</tspan><tspan x="0" y="12" style="font-family:'Noteworthy-Light'; font-size:10px;">SEA KAYAKERS</tspan></text>
	<rect x="99.8" y="13.2" class="st9" width="87.5" height="25.5"/>
	<text transform="matrix(1 0 0 1 99.7827 29.678)" class="st13 st11 st14">BASK</text>
	<text transform="matrix(1 0 0 1 49.2939 65.0166)"><tspan x="0" y="0" class="st10 st11 st12">S</tspan><tspan x="7.5" y="0" class="st10 st11 st12">E</tspan><tspan x="15.5" y="0" class="st10 st11 st12">A</tspan><tspan x="23.4" y="0" class="st10 st11 st12"> </tspan><tspan x="26.9" y="0" class="st10 st11 st12">K</tspan><tspan x="34.3" y="0" class="st10 st11 st12">A</tspan><tspan x="42.7" y="0" class="st10 st11 st12 st15">Y</tspan><tspan x="48.6" y="0" class="st10 st11 st12">A</tspan><tspan x="56.9" y="0" class="st10 st11 st12">KE</tspan><tspan x="71.8" y="0" class="st10 st11 st12">R</tspan><tspan x="80.1" y="0" class="st10 st11 st12">S</tspan></text>
</g>
</svg>
