<?xml version="1.0" encoding="utf-8"?>
<!-- Generator: Adobe Illustrator 25.4.1, SVG Export Plug-In . SVG Version: 6.00 Build 0)  -->
<svg version="1.1" id="Layer_1" xmlns="http://www.w3.org/2000/svg" xmlns:xlink="http://www.w3.org/1999/xlink" x="0px" y="0px"
	 width="200px" height="80px" viewBox="0 0 200 80" enable-background="new 0 0 200 80" xml:space="preserve">
<ellipse display="none" fill="none" stroke="#000000" stroke-width="1.5" stroke-miterlimit="10" cx="100.2" cy="39.7" rx="97.9" ry="37.9"/>
<g id="XMLID_00000170981846462173465990000000793266709701862022_">
	<g>
		<path fill="#98E0F5" d="M184.7,20.7c6.2,6.4,8,13.2,6.2,18.8c-2.2,6.7-11.2,14.1-27.8,13.3s-46.6-8.2-77.6-16.9s-56.4-12.2-67-6.3
			C8.7,35,6,47.2,13.9,57.2l-0.1,0.2C6.5,52.1,2.3,46.1,2.3,39.7c0-20.9,43.8-37.9,97.9-37.9c36.1,0,67.6,7.6,84.6,18.8L184.7,20.7z
			"/>
		<g id="GG_Bridge">
			<g>
				<line fill="none" stroke="#DF004B" stroke-miterlimit="10" x1="182.6" y1="38.3" x2="182.6" y2="45.4"/>
				<line fill="none" stroke="#DF004B" stroke-miterlimit="10" x1="185.8" y1="40.9" x2="185.8" y2="45.4"/>
				<path fill="none" stroke="#DF004B" stroke-linecap="round" stroke-linejoin="round" stroke-miterlimit="10" d="M120.5,44.8
					c4.6-1.4,15.3-6.6,16.6-9c3,2.7,11.9,9.4,21.3,9.4s19.3-7.5,21-9.7c3.4,2.7,6.9,5.9,9.8,6.7"/>
				<path fill="none" stroke="#DF004B" stroke-linecap="round" stroke-linejoin="round" stroke-miterlimit="10" d="M123.4,45.7
					c11.2,0,59.5,0,62.8,0"/>
				
					<path fill="none" stroke="#DF004B" stroke-width="2" stroke-linecap="round" stroke-linejoin="round" stroke-miterlimit="10" d="
					M137.1,48c0-3.8,0-11.4,0-12.2"/>
				
					<path fill="none" stroke="#DF004B" stroke-width="2" stroke-linecap="round" stroke-linejoin="round" stroke-miterlimit="10" d="
					M179.3,50.4c0-3.4,0-13.8,0-14.7"/>
				<path fill="none" stroke="#DF004B" stroke-miterlimit="10" d="M134,38.7c0,2,0,6.5,0,6.5"/>
				<line fill="none" stroke="#DF004B" stroke-miterlimit="10" x1="130.5" y1="40.6" x2="130.5" y2="45.4"/>
				
					<line fill="none" stroke="#DF004B" stroke-linecap="round" stroke-linejoin="round" stroke-miterlimit="10" x1="127.2" y1="42.5" x2="127.2" y2="45.5"/>
				<line fill="none" stroke="#DF004B" stroke-miterlimit="10" x1="140.3" y1="38.4" x2="140.3" y2="45.7"/>
				<line fill="none" stroke="#DF004B" stroke-miterlimit="10" x1="143.7" y1="40.9" x2="143.7" y2="45.4"/>
				<line fill="none" stroke="#DF004B" stroke-miterlimit="10" x1="147.1" y1="42.7" x2="147.1" y2="45.7"/>
				
					<line fill="none" stroke="#DF004B" stroke-linecap="round" stroke-linejoin="round" stroke-miterlimit="10" x1="175.5" y1="39" x2="175.5" y2="45.6"/>
				<line fill="none" stroke="#DF004B" stroke-miterlimit="10" x1="172.7" y1="41" x2="172.7" y2="45.5"/>
				
					<line fill="none" stroke="#DF004B" stroke-linecap="round" stroke-linejoin="round" stroke-miterlimit="10" x1="168.9" y1="43.1" x2="168.9" y2="45.7"/>
			</g>
		</g>
		<path fill="#00B7E4" d="M190.9,39.5c1.8-5.6,0-12.4-6.2-18.8l0.1-0.1c8.4,5.6,13.3,12.1,13.3,19c0,20.9-43.8,37.9-97.9,37.9
			c-37.5,0-70-8.2-86.5-20.1l0.1-0.2C6,47.2,8.7,35,18.5,29.6c10.6-5.9,36-2.5,67,6.3s61,16.1,77.6,16.9
			C179.8,53.6,188.8,46.2,190.9,39.5z"/>
	</g>
	<g>
		<path fill="none" stroke="#000000" stroke-width="1.5" stroke-linecap="round" stroke-miterlimit="10" d="M13.7,57.4
			C6.5,52.1,2.3,46.1,2.3,39.7c0-20.9,43.8-37.9,97.9-37.9c36.1,0,67.6,7.6,84.6,18.8"/>
		<path fill="none" stroke="#000000" stroke-width="1.5" stroke-miterlimit="10" d="M184.8,20.6c8.4,5.6,13.3,12.1,13.3,19
			c0,20.9-43.8,37.9-97.9,37.9c-37.5,0-70-8.2-86.5-20.1"/>
		<path fill="none" stroke="#000000" stroke-width="1.5" stroke-linecap="round" stroke-miterlimit="10" d="M13.9,57.2
			C6,47.2,8.7,35,18.5,29.6c10.6-5.9,36-2.5,67,6.3s61,16.1,77.6,16.9c16.6,0.8,25.6-6.5,27.8-13.3c1.8-5.6,0-12.4-6.2-18.8"/>
	</g>
</g>
<path d="M60.6,26.5c6.8,1.7,15,4,14.6,2.5c-0.4-1.4-4.3-4.7-6.8-7.5c-1.7-1.9-4.4-6-4.1-7.4c-0.4,0-3.8-0.5-4.9-0.5s-2,0-4.6,0
	s-5.7-1-3.6-2.3c2.1-1.3,5.4,0.5,7.2,1.2c2.6,0.6,11.4,1.6,15.5,2c3.9,0.4,13.5,2,15,2.2c1.2,0,3.4-0.2,5.5,0.5s2.6,2.2,1.5,2.4
	s-6.8-1-8.5-2.2c-1.4-0.4-5.5-1.1-6.6-1.2c0,0,0.7,4.2,0.1,5.4c-0.5,0.5-2.6,2.2-2.7,2.7s0.2,1.9,0.9,2.7c0.7,0.8,1.9,2.4,2.2,3.6
	c1.4,0.2,1.7-1.3,3.4-0.6c2.1,0.8,14,4.1,15.3,4.6c3,1.1,11.6,1.3,11.5,1.7c0.1,0.9-7.4,2.5-11.5,3.2c-1.4-0.4-17.6-4.8-20.8-5.9
	s-18.4-4.4-21.7-4.5c0,0-11.7-7.4-9.1-7.8C50.1,22.5,54.8,25,60.6,26.5z M69.6,20.5c0.7,0.4,1.6,0.8,1.8,0.5s0.5-1,0.3-1.4
	s-1-0.5-1.6-1.5S69.6,16.2,70,15c-0.7-0.4-3.5-0.3-4.7-0.4C65.2,15.9,67.3,19.1,69.6,20.5z M74.6,19.6c-0.2,0.7-0.6,0.5-1,0.6
	s-0.5,1-0.2,1.5s1.3,0.8,1.6,0.8c0.7-0.3,1.3-1,1.7-1.2s2.1-0.2,2.5-1s0.4-4-0.4-4.4s-6.4-0.6-5.4,0.1
	C73.7,16.3,74.8,18.9,74.6,19.6z"/>
<g>
	<rect x="18.5" y="41.8" fill="none" width="60.8" height="10.9"/>
	<text transform="matrix(1 0 0 1 18.4802 50.0774)" font-family="'ArialMT'" font-size="12px">B</text>
	
		<text transform="matrix(1 0 0 1 18.4802 50.0774)" fill="none" stroke="#000000" stroke-width="0.25" stroke-miterlimit="10" font-family="'ArialMT'" font-size="12px">B</text>
	<text transform="matrix(1 0 0 1 26.3802 50.0774)" font-family="'ArialMT'" font-size="12px">A</text>
	
		<text transform="matrix(1 0 0 1 26.3802 50.0774)" fill="none" stroke="#000000" stroke-width="0.25" stroke-miterlimit="10" font-family="'ArialMT'" font-size="12px">A</text>
	<text transform="matrix(1 0 0 1 35.1802 50.0774)" font-family="'ArialMT'" font-size="12px">Y </text>
	
		<text transform="matrix(1 0 0 1 35.1802 50.0774)" fill="none" stroke="#000000" stroke-width="0.25" stroke-miterlimit="10" font-family="'ArialMT'" font-size="12px">Y </text>
	<text transform="matrix(1 0 0 1 45.2802 50.0774)" font-family="'ArialMT'" font-size="12px">A</text>
	
		<text transform="matrix(1 0 0 1 45.2802 50.0774)" fill="none" stroke="#000000" stroke-width="0.25" stroke-miterlimit="10" font-family="'ArialMT'" font-size="12px">A</text>
	<text transform="matrix(1 0 0 1 53.3802 50.0774)" font-family="'ArialMT'" font-size="12px">R</text>
	
		<text transform="matrix(1 0 0 1 53.3802 50.0774)" fill="none" stroke="#000000" stroke-width="0.25" stroke-miterlimit="10" font-family="'ArialMT'" font-size="12px">R</text>
	<text transform="matrix(1 0 0 1 61.1802 50.0774)" font-family="'ArialMT'" font-size="12px">E</text>
	
		<text transform="matrix(1 0 0 1 61.1802 50.0774)" fill="none" stroke="#000000" stroke-width="0.25" stroke-miterlimit="10" font-family="'ArialMT'" font-size="12px">E</text>
	<text transform="matrix(1 0 0 1 68.8802 50.0774)" font-family="'ArialMT'" font-size="12px">A</text>
	
		<text transform="matrix(1 0 0 1 68.8802 50.0774)" fill="none" stroke="#000000" stroke-width="0.25" stroke-miterlimit="10" font-family="'ArialMT'" font-size="12px">A</text>
</g>
<rect x="99.8" y="13.2" fill="none" width="87.5" height="25.5"/>
<text transform="matrix(1 0 0 1 99.7827 29.678)" font-family="'ArialMT'" font-size="24px">BASK</text>
<text transform="matrix(1 0 0 1 99.7827 29.678)" fill="none" stroke="#000000" stroke-width="0.5" stroke-miterlimit="10" font-family="'ArialMT'" font-size="24px">BASK</text>
<text transform="matrix(1 0 0 1 49.2939 65.0166)" font-family="'ArialMT'" font-size="12px">S</text>
<text transform="matrix(1 0 0 1 49.2939 65.0166)" fill="none" stroke="#000000" stroke-width="0.25" stroke-miterlimit="10" font-family="'ArialMT'" font-size="12px">S</text>
<text transform="matrix(1 0 0 1 56.7939 65.0166)" font-family="'ArialMT'" font-size="12px">E</text>
<text transform="matrix(1 0 0 1 56.7939 65.0166)" fill="none" stroke="#000000" stroke-width="0.25" stroke-miterlimit="10" font-family="'ArialMT'" font-size="12px">E</text>
<text transform="matrix(1 0 0 1 64.7939 65.0166)" font-family="'ArialMT'" font-size="12px">A</text>
<text transform="matrix(1 0 0 1 64.7939 65.0166)" fill="none" stroke="#000000" stroke-width="0.25" stroke-miterlimit="10" font-family="'ArialMT'" font-size="12px">A</text>
<text transform="matrix(1 0 0 1 72.6939 65.0166)" font-family="'ArialMT'" font-size="12px"> </text>
<text transform="matrix(1 0 0 1 72.6939 65.0166)" fill="none" stroke="#000000" stroke-width="0.25" stroke-miterlimit="10" font-family="'ArialMT'" font-size="12px"> </text>
<text transform="matrix(1 0 0 1 76.1939 65.0166)" font-family="'ArialMT'" font-size="12px">K</text>
<text transform="matrix(1 0 0 1 76.1939 65.0166)" fill="none" stroke="#000000" stroke-width="0.25" stroke-miterlimit="10" font-family="'ArialMT'" font-size="12px">K</text>
<text transform="matrix(1 0 0 1 83.5939 65.0166)" font-family="'ArialMT'" font-size="12px">A</text>
<text transform="matrix(1 0 0 1 83.5939 65.0166)" fill="none" stroke="#000000" stroke-width="0.25" stroke-miterlimit="10" font-family="'ArialMT'" font-size="12px">A</text>
<text transform="matrix(1 0 0 1 91.9939 65.0166)" font-family="'ArialMT'" font-size="12px">Y</text>
<text transform="matrix(1 0 0 1 91.9939 65.0166)" fill="none" stroke="#000000" stroke-width="0.25" stroke-miterlimit="10" font-family="'ArialMT'" font-size="12px">Y</text>
<text transform="matrix(1 0 0 1 97.8939 65.0166)" font-family="'ArialMT'" font-size="12px">A</text>
<text transform="matrix(1 0 0 1 97.8939 65.0166)" fill="none" stroke="#000000" stroke-width="0.25" stroke-miterlimit="10" font-family="'ArialMT'" font-size="12px">A</text>
<text transform="matrix(1 0 0 1 106.1939 65.0166)" font-family="'ArialMT'" font-size="12px">KE</text>
<text transform="matrix(1 0 0 1 106.1939 65.0166)" fill="none" stroke="#000000" stroke-width="0.25" stroke-miterlimit="10" font-family="'ArialMT'" font-size="12px">KE</text>
<text transform="matrix(1 0 0 1 121.0939 65.0166)" font-family="'ArialMT'" font-size="12px">R</text>
<text transform="matrix(1 0 0 1 121.0939 65.0166)" fill="none" stroke="#000000" stroke-width="0.25" stroke-miterlimit="10" font-family="'ArialMT'" font-size="12px">R</text>
<text transform="matrix(1 0 0 1 129.3939 65.0166)" font-family="'ArialMT'" font-size="12px">S</text>
<text transform="matrix(1 0 0 1 129.3939 65.0166)" fill="none" stroke="#000000" stroke-width="0.25" stroke-miterlimit="10" font-family="'ArialMT'" font-size="12px">S</text>
</svg>
