<?xml version="1.0" encoding="utf-8"?>
<!-- Generator: Adobe Illustrator 25.4.1, SVG Export Plug-In . SVG Version: 6.00 Build 0)  -->
<svg version="1.1"
	 id="svg2" xmlns:cc="http://creativecommons.org/ns#" xmlns:dc="http://purl.org/dc/elements/1.1/" xmlns:inkscape="http://www.inkscape.org/namespaces/inkscape" xmlns:rdf="http://www.w3.org/1999/02/22-rdf-syntax-ns#" xmlns:sodipodi="http://sodipodi.sourceforge.net/DTD/sodipodi-0.dtd" xmlns:svg="http://www.w3.org/2000/svg"
	 xmlns="http://www.w3.org/2000/svg" xmlns:xlink="http://www.w3.org/1999/xlink" x="0px" y="0px" width="1163px" height="1163px"
	 viewBox="0 0 1163 1163" enable-background="new 0 0 1163 1163" xml:space="preserve">
<sodipodi:namedview  bordercolor="#666666" borderopacity="1" gridtolerance="10" guidetolerance="10" id="namedview89" inkscape:current-layer="svg2" inkscape:cx="296.01818" inkscape:cy="583.96398" inkscape:pageopacity="0" inkscape:pageshadow="2" inkscape:window-height="919" inkscape:window-maximized="1" inkscape:window-width="1280" inkscape:window-x="0" inkscape:window-y="0" inkscape:zoom="0.62444691" objecttolerance="10" pagecolor="#ffffff" showgrid="false">
	</sodipodi:namedview>
<path id="path6011" inkscape:connector-curvature="0" stroke="param(outline) #000" stroke-width="2.25" d="M833.4,928.5l6,8.3 M839.6,923.9
	l6.2,8.2 M845.6,919.3l6.3,8.1 M851.6,914.6l6.4,8 M856.9,910.1l15.9,18.9 M909.8,857.2l18.9,15.9 M862.8,905.2l6.7,7.8
	 M868.5,900.1l6.9,7.6 M874.1,895l7,7.5 M879.6,889.7l7.1,7.4 M889.9,879.4l7.4,7.1 M895.2,873.9l7.5,7 M900.3,868.3l7.6,6.9
	 M905.4,862.6l7.8,6.7 M914.8,851.3l8,6.4 M919.5,845.3l8.1,6.3 M924.1,839.3l8.2,6.2 M928.6,833.2l8.3,6 M884.5,884.8l12.3,12.3
	 M952.8,795.9l21.4,12.3 M984.4,728.1l23.2,8.5 M1003.8,655.9l24.3,4.3 M1010.3,581.3h24.7 M1003.8,506.7l24.3-4.3 M937,821.2
	l8.5,5.7 M941.1,814.9l8.6,5.6 M945.3,808.4l8.7,5.4 M949.2,802l8.8,5.3 M956.5,789.3l9,4.9 M960.2,782.6l9.1,4.8 M963.7,775.8
	l9.2,4.6 M967.1,769l9.3,4.5 M973.3,755.8l9.4,4.1 M976.3,748.8l9.5,4 M979.2,741.7l9.5,3.8 M982,734.6l9.6,3.6 M986.9,720.9
	l9.7,3.3 M989.4,713.7l9.7,3.2 M991.7,706.5l9.8,3 M993.8,699.1l9.8,2.9 M997.6,685l9.9,2.5 M999.4,677.6l9.9,2.3 M1001,670.1
	l10,2.2 M1002.5,662.6l10,2 M1005.1,648.3l10.1,1.6 M1006.1,640.8l10.1,1.4 M1007.1,633.2l10.1,1.3 M1008,625.6l10.2,1.1
	 M1009.3,611.1l10.2,0.7 M1009.7,603.5l10.2,0.5 M1010.1,595.9l10.2,0.4 M1010.3,588.3l10.2,0.2 M1010.3,573.6l10.2-0.2 M1010.1,566
	l10.2-0.4 M1009.7,558.5l10.2-0.5 M1009.2,550.9l10.2-0.7 M1007.9,536.3l10.1-1.1 M1007,528.7l10.1-1.3 M1006,521.1l10.1-1.4
	 M1005,513.6l10.1-1.6 M1002.4,499.3l10-2 M1000.9,491.8l10-2.2 M999.3,484.3l9.9-2.3 M997.5,476.9l9.9-2.5 M932.7,827.5l14.3,10
	 M970.1,762.7l15.9,7.4 M995.7,692.4l16.8,4.5 M1008.7,618.7l17.4,1.5 M1008.7,543.9l17.4-1.5 M359.8,213.4l-5.3-8.8 M353.3,217.3
	l-5.4-8.7 M346.9,221.4l-5.6-8.6 M340.5,225.7l-5.7-8.5 M247.3,311.3l-8-6.4 M242.6,317.2l-8.1-6.3 M238,323.2l-8.2-6.2
	 M233.5,329.4l-8.3-6 M225.1,341.3l-8.5-5.7 M220.9,347.7l-8.6-5.6 M216.7,354.1l-8.7-5.4 M212.8,360.6l-8.8-5.3 M305.1,252.5
	l-15.9-18.9 M252.2,305.4l-18.9-15.9 M328.6,234.1l-6-8.3 M322.5,238.6l-6.2-8.2 M316.4,243.2l-6.3-8.1 M310.5,247.9l-6.4-8
	 M299.2,257.4l-6.7-7.8 M293.6,262.4l-6.9-7.6 M288,267.5l-7-7.5 M282.4,272.9l-7.1-7.4 M272.2,283.2l-7.4-7.1 M266.8,288.7l-7.5-7
	 M261.7,294.3l-7.6-6.9 M256.7,300l-7.8-6.7 M334.8,229.6l-10-14.3 M277.5,277.7l-12.3-12.3 M229.4,335l-14.3-10 M209.2,366.6
	l-21.4-12.3 M177.6,434.5l-23.2-8.5 M158.2,506.7l-24.3-4.3 M151.7,581.3H127 M158.2,655.9l-24.3,4.3 M177.6,728.1l-23.2,8.5
	 M209.2,795.9l-21.4,12.3 M205.5,373.3l-9-4.9 M201.8,380l-9.1-4.8 M198.3,386.7l-9.2-4.6 M194.9,393.5l-9.3-4.5 M188.8,406.8
	l-9.4-4.1 M185.8,413.8l-9.5-4 M182.8,420.8l-9.5-3.8 M180.1,427.9l-9.6-3.6 M175.1,441.7l-9.7-3.3 M172.7,448.8l-9.7-3.2
	 M170.3,456.1l-9.8-3 M168.2,463.4l-9.8-2.9 M164.4,477.5l-9.9-2.5 M162.6,485l-9.9-2.3 M161.1,492.4l-10-2.2 M159.5,499.9l-10-2
	 M157,514.2l-10.1-1.6 M155.9,521.8l-10.1-1.4 M154.9,529.3l-10.1-1.3 M154,536.9l-10.1-1.1 M152.8,551.5l-10.2-0.7 M152.3,559
	l-10.2-0.5 M152,566.6l-10.2-0.4 M151.8,574.3l-10.2-0.2 M151.8,588.9l-10.2,0.2 M152,596.5l-10.2,0.4 M152.3,604.1l-10.2,0.5
	 M152.8,611.7l-10.2,0.7 M154.1,626.3l-10.1,1.1 M155,633.9l-10.1,1.3 M156,641.4l-10.1,1.4 M157,649l-10.1,1.6 M159.7,663.3l-10,2
	 M161.2,670.8l-10,2.2 M162.8,678.2l-9.9,2.3 M164.6,685.6l-9.9,2.5 M168.4,699.7l-9.8,2.9 M170.5,707.1l-9.8,3 M172.9,714.3
	l-9.7,3.2 M175.3,721.5l-9.7,3.3 M180.3,735.2l-9.6,3.6 M183.1,742.3l-9.5,3.8 M186,749.4l-9.5,4 M189,756.3l-9.4,4.1 M195.2,769.6
	l-9.3,4.5 M198.6,776.4l-9.2,4.6 M202.1,783.2L193,788 M205.8,789.9l-9,4.9 M192,399.9l-15.9-7.4 M166.4,470.1l-16.8-4.5
	 M153.4,543.9l-17.4-1.5 M153.4,618.7l-17.4,1.5 M166.4,692.4l-16.8,4.5 M192,762.7l-15.9,7.4 M252.2,857.2l-18.9,15.9 M305.1,910.1
	L289.2,929 M213.1,802.5l-8.8,5.3 M217.1,809l-8.7,5.4 M221.1,815.4l-8.6,5.6 M225.4,821.8l-8.5,5.7 M233.8,833.7l-8.3,6
	 M238.3,839.8l-8.2,6.2 M243,845.8l-8.1,6.3 M247.7,851.8l-8,6.4 M257.1,863l-7.8,6.7 M262.2,868.7l-7.6,6.9 M267.3,874.3l-7.5,7
	 M272.6,879.9l-7.4,7.1 M282.9,890.1l-7.1,7.4 M288.4,895.4l-7,7.5 M294,900.6l-6.9,7.6 M299.7,905.6l-6.7,7.8 M229.4,827.5
	l-14.3,10 M277.5,884.8l-12.3,12.3 M366.4,953.1l-12.3,21.4 M434.2,984.7l-8.5,23.2 M506.4,1004.1l-4.3,24.3 M581,1010.6v24.7
	 M655.6,1004.1l4.3,24.3 M727.8,984.7l8.5,23.2 M795.7,953.1l12.3,21.4 M341.1,937.2l-5.7,8.5 M347.4,941.4l-5.6,8.6 M353.8,945.6
	l-5.4,8.7 M360.3,949.5l-5.3,8.8 M373,956.8l-4.9,9 M379.7,960.5l-4.8,9.1 M386.5,963.9l-4.6,9.2 M393.3,967.4l-4.5,9.3
	 M406.5,973.5l-4.1,9.4 M413.5,976.5l-4,9.5 M420.6,979.5l-3.8,9.5 M427.7,982.2l-3.6,9.6 M441.4,987.2l-3.3,9.7 M448.6,989.6
	l-3.2,9.7 M455.8,992l-3,9.8 M463.2,994l-2.9,9.8 M477.3,997.9l-2.5,9.9 M484.7,999.7l-2.3,9.9 M492.2,1001.2l-2.2,10 M499.6,1002.8
	l-2,10 M514,1005.3l-1.6,10.1 M521.5,1006.4l-1.4,10.1 M529.1,1007.4l-1.3,10.1 M536.7,1008.3l-1.1,10.1 M551.2,1009.5l-0.7,10.2
	 M558.8,1010l-0.5,10.2 M566.4,1010.3l-0.4,10.2 M574,1010.5l-0.2,10.2 M588.7,1010.5l0.2,10.2 M596.3,1010.3l0.4,10.2 M603.8,1010
	l0.5,10.2 M611.4,1009.5l0.7,10.2 M626,1008.2l1.1,10.1 M633.6,1007.3l1.3,10.1 M641.2,1006.3l1.4,10.1 M648.7,1005.2l1.6,10.1
	 M663,1002.6l2,10 M670.5,1001.1l2.2,10 M678,999.5l2.3,9.9 M685.4,997.7l2.5,9.9 M699.5,993.9l2.9,9.8 M706.8,991.8l3,9.8
	 M714,989.4l3.2,9.7 M721.2,987l3.3,9.7 M735,982l3.6,9.6 M742.1,979.2l3.8,9.5 M749.1,976.3l4,9.5 M756.1,973.3l4.1,9.4
	 M769.3,967.1l4.5,9.3 M776.1,963.7l4.6,9.2 M782.9,960.2l4.8,9.1 M789.6,956.5l4.9,9 M802.2,949.1l5.3,8.8 M808.7,945.2l5.4,8.7
	 M815.2,941.2l5.6,8.6 M821.5,936.9l5.7,8.5 M334.8,932.9l-10,14.3 M399.6,970.3l-7.4,15.9 M469.9,995.9l-4.5,16.8 M543.6,1008.9
	l-1.5,17.4 M618.4,1008.9l1.5,17.4 M692.1,995.9l4.5,16.8 M762.4,970.3l7.4,15.9 M827.2,932.9l10,14.3 M311,915l-6.4,8 M317,919.7
	l-6.3,8.1 M323,924.3l-6.2,8.2 M329.1,928.8l-6,8.3 M984.4,434.5l23.2-8.5 M952.8,366.6l21.4-12.3 M909.8,305.4l18.9-15.9
	 M993.6,462.8l9.8-2.9 M991.5,455.5l9.8-3 M989.2,448.3l9.7-3.2 M986.7,441.1l9.7-3.3 M981.7,427.3l9.6-3.6 M979,420.2l9.5-3.8
	 M976,413.2l9.5-4 M973,406.2l9.4-4.1 M966.9,393l9.3-4.5 M963.4,386.1l9.2-4.6 M959.9,379.4l9.1-4.8 M956.2,372.7l9-4.9
	 M948.9,360.1l8.8-5.3 M945,353.6l8.7-5.4 M940.9,347.1l8.6-5.6 M936.6,340.8l8.5-5.7 M928.2,328.9l8.3-6 M923.7,322.7l8.2-6.2
	 M919.1,316.7l8.1-6.3 M914.4,310.7l8-6.4 M995.7,470.2l16.8-4.5 M970.1,399.9l15.9-7.4 M932.7,335l14.3-10 M856.9,252.5l15.9-18.9
	 M904.9,299.5l7.8-6.7 M899.9,293.8l7.6-6.9 M894.8,288.2l7.5-7 M889.4,282.7l7.4-7.1 M879.1,272.4l7.1-7.4 M873.6,267.1l7-7.5
	 M868,262l6.9-7.6 M862.3,256.9l6.7-7.8 M851,247.5l6.4-8 M845.1,242.8l6.3-8.1 M839.1,238.2l6.2-8.2 M832.9,233.7l6-8.3 M821,225.3
	l5.7-8.5 M814.6,221.2l5.6-8.6 M808.2,217l5.4-8.7 M801.7,213.1l5.3-8.8 M884.5,277.7l12.3-12.3 M827.2,229.6l10-14.3 M581,152
	v-24.7 M506.4,158.5l-4.3-24.3 M434.2,177.9l-8.5-23.2 M366.4,209.5l-12.3-21.4 M795.7,209.5l12.3-21.4 M727.8,177.9l8.5-23.2
	 M655.6,158.5l4.3-24.3 M573.4,152l-0.2-10.2 M565.8,152.2l-0.4-10.2 M558.2,152.6l-0.5-10.2 M550.6,153.1l-0.7-10.2 M536,154.4
	l-1.1-10.2 M528.4,155.2l-1.3-10.1 M520.9,156.3l-1.4-10.1 M513.3,157.3l-1.6-10.1 M499,159.9l-2-10 M491.5,161.4l-2.2-10
	 M484.1,163l-2.3-9.9 M476.7,164.8l-2.5-9.9 M462.5,168.7l-2.9-9.8 M455.2,170.8l-3-9.8 M448,173.1l-3.2-9.7 M440.8,175.6l-3.3-9.7
	 M427.1,180.6l-3.6-9.6 M420,183.3l-3.8-9.5 M412.9,186.3l-4-9.5 M406,189.2l-4.1-9.4 M392.7,195.4l-4.5-9.3 M385.9,198.9l-4.6-9.2
	 M379.1,202.4l-4.8-9.1 M372.4,206.1l-4.9-9 M789,205.8l4.9-9 M782.3,202.1l4.8-9.1 M775.6,198.6l4.6-9.2 M768.8,195.2l4.5-9.3
	 M755.5,189l4.1-9.4 M748.5,186l4-9.5 M741.5,183.1l3.8-9.5 M734.4,180.3l3.6-9.6 M720.6,175.4l3.3-9.7 M713.5,172.9l3.2-9.7
	 M706.2,170.6l3-9.8 M698.9,168.5l2.9-9.8 M684.8,164.7l2.5-9.9 M677.3,162.9l2.3-9.9 M669.9,161.3l2.2-10 M662.4,159.8l2-10
	 M648.1,157.2l1.6-10.1 M640.5,156.2l1.4-10.1 M633,155.2l1.3-10.1 M625.4,154.3l1.1-10.2 M610.8,153l0.7-10.2 M603.3,152.6
	l0.5-10.2 M595.7,152.2l0.4-10.2 M588,152l0.2-10.2 M543.6,153.6l-1.5-17.4 M469.9,166.6l-4.5-16.8 M399.6,192.2l-7.4-15.9
	 M762.4,192.2l7.4-15.9 M692.1,166.6l4.5-16.8 M618.4,153.6l1.5-17.4 M581,152v-10.2"/>
<path id="path7873" inkscape:connector-curvature="0" stroke="param(outline) #000" stroke-width="3" d="M92.2,581.3h-35"/>
<path id="path7875" inkscape:connector-curvature="0" stroke="param(outline) #000" stroke-width="3" d="M581,1070v35"/>
<path id="path7877" inkscape:connector-curvature="0" stroke="param(outline) #000" stroke-width="3" d="M1069.8,581.3h35"/>
<path id="path7879" inkscape:connector-curvature="0" fill="none" stroke="param(outline) #000" stroke-width="3" d="M581,92.5v-35"/>
<text fill="param(fill) #000" id="text14" transform="matrix(1 0 0 1 576.4636 116.5437)" font-family="'Arial-BoldMT'" font-size="20px">0</text>
<text fill="param(fill) #000" id="text16" transform="matrix(0.9848 -0.1736 0.1736 0.9848 487.3038 127.0051)" font-family="'Arial-BoldMT'" font-size="20px">350</text>
<text fill="param(fill) #000" id="text18" transform="matrix(0.9397 -0.342 0.342 0.9397 408.2952 150.2981)" font-family="'Arial-BoldMT'" font-size="20px">340</text>
<text fill="param(fill) #000" id="text20" transform="matrix(0.766 -0.6428 0.6428 0.766 271.9631 233.9742)" font-family="'Arial-BoldMT'" font-size="20px">320</text>
<text fill="param(fill) #000" id="text22" transform="matrix(0.866 -0.5 0.5 0.866 337.2833 185.771)" font-family="'Arial-BoldMT'" font-size="20px">330</text>
<text fill="param(fill) #000" id="text24" transform="matrix(0.6428 -0.766 0.766 0.6428 216.0767 294.0713)" font-family="'Arial-BoldMT'" font-size="20px">310</text>
<text fill="param(fill) #000" id="text26" transform="matrix(0.5 -0.866 0.866 0.5 171.8889 361.3432)" font-family="'Arial-BoldMT'" font-size="20px">300</text>
<text fill="param(fill) #000" id="text28" transform="matrix(0.342 -0.9397 0.9397 0.342 140.0754 435.5691)" font-family="'Arial-BoldMT'" font-size="20px">290</text>
<text fill="param(fill) #000" id="text30" transform="matrix(0.1736 -0.9848 0.9848 0.1736 121.5187 513.9766)" font-family="'Arial-BoldMT'" font-size="20px">280</text>
<text fill="param(fill) #000" id="text32" transform="matrix(0 -1 1 0 115.4934 598.3965)" font-family="'Arial-BoldMT'" font-size="20px">270</text>
<text fill="param(fill) #000" id="text34" transform="matrix(0.9848 0.1736 -0.1736 0.9848 653.4858 121.1198)" font-family="'Arial-BoldMT'" font-size="20px">10</text>
<text fill="param(fill) #000" id="text36" transform="matrix(0.9397 0.342 -0.342 0.9397 732.5198 140.9411)" font-family="'Arial-BoldMT'" font-size="20px">20</text>
<text fill="param(fill) #000" id="text38" transform="matrix(0.866 0.5 -0.5 0.866 806.7355 172.6286)" font-family="'Arial-BoldMT'" font-size="20px">30</text>
<text fill="param(fill) #000" id="text40" transform="matrix(0.766 0.6428 -0.6428 0.766 873.9551 219.6297)" font-family="'Arial-BoldMT'" font-size="20px">40</text>
<text fill="param(fill) #000" id="text42" transform="matrix(0.6428 0.766 -0.766 0.6428 932.0781 275.1318)" font-family="'Arial-BoldMT'" font-size="20px">50</text>
<text fill="param(fill) #000" id="text44" transform="matrix(0.5 0.866 -0.866 0.5 978.7852 342.4481)" font-family="'Arial-BoldMT'" font-size="20px">60</text>
<text fill="param(fill) #000" id="text46" transform="matrix(0.342 0.9397 -0.9397 0.342 1016.1975 413.3474)" font-family="'Arial-BoldMT'" font-size="20px">70</text>
<text fill="param(fill) #000" id="text48" transform="matrix(0.1736 0.9848 -0.9848 0.1736 1038.0249 490.7888)" font-family="'Arial-BoldMT'" font-size="20px">80</text>
<text fill="param(fill) #000" id="text50" transform="matrix(0 1 -1 0 1045.1699 570.0115)" font-family="'Arial-BoldMT'" font-size="20px">90</text>
<text fill="param(fill) #000" id="text52" transform="matrix(1 0 0 1 565.363 1059.7263)" font-family="'Arial-BoldMT'" font-size="20px">180</text>
<text fill="param(fill) #000" id="text54" transform="matrix(0.9848 0.1736 -0.1736 0.9848 482.9897 1050.6178)" font-family="'Arial-BoldMT'" font-size="20px">190</text>
<text fill="param(fill) #000" id="text56" transform="matrix(0.9397 0.342 -0.342 0.9397 404.6907 1025.5564)" font-family="'Arial-BoldMT'" font-size="20px">200</text>
<text fill="param(fill) #000" id="text58" transform="matrix(0.866 0.5 -0.5 0.866 329.9962 987.9802)" font-family="'Arial-BoldMT'" font-size="20px">210</text>
<text fill="param(fill) #000" id="text60" transform="matrix(0.766 0.6428 -0.6428 0.766 262.7408 938.9676)" font-family="'Arial-BoldMT'" font-size="20px">220</text>
<text fill="param(fill) #000" id="text62" transform="matrix(0.6428 0.766 -0.766 0.6428 206.3867 878.0944)" font-family="'Arial-BoldMT'" font-size="20px">230</text>
<text fill="param(fill) #000" id="text64" transform="matrix(0.5 0.866 -0.866 0.5 160.9756 809.0956)" font-family="'Arial-BoldMT'" font-size="20px">240</text>
<text fill="param(fill) #000" id="text66" transform="matrix(0.342 0.9397 -0.9397 0.342 127.8928 732.2643)" font-family="'Arial-BoldMT'" font-size="20px">250</text>
<text fill="param(fill) #000" id="text68" transform="matrix(0.1736 0.9848 -0.9848 0.1736 108.5943 650.8347)" font-family="'Arial-BoldMT'" font-size="20px">260</text>
<text fill="param(fill) #000" id="text70" transform="matrix(0.9848 -0.1736 0.1736 0.9848 648.6926 1057.9021)" font-family="'Arial-BoldMT'" font-size="20px">170</text>
<text fill="param(fill) #000" id="text72" transform="matrix(0.9397 -0.342 0.342 0.9397 732.0344 1034.282)" font-family="'Arial-BoldMT'" font-size="20px">160</text>
<text fill="param(fill) #000" id="text74" transform="matrix(0.866 -0.5 0.5 0.866 808.4183 1001.392)" font-family="'Arial-BoldMT'" font-size="20px">150</text>
<text fill="param(fill) #000" id="text76" transform="matrix(0.766 -0.6428 0.6428 0.766 877.9582 955.213)" font-family="'Arial-BoldMT'" font-size="20px">140</text>
<text fill="param(fill) #000" id="text78" transform="matrix(0.6428 -0.766 0.766 0.6428 938.6016 898.8876)" font-family="'Arial-BoldMT'" font-size="20px">130</text>
<text fill="param(fill) #000" id="text80" transform="matrix(0.5 -0.866 0.866 0.5 988.3732 833.3412)" font-family="'Arial-BoldMT'" font-size="20px">120</text>
<text fill="param(fill) #000" id="text82" transform="matrix(0.342 -0.9397 0.9397 0.342 1024.8186 757.4802)" font-family="'Arial-BoldMT'" font-size="20px">110</text>
<text fill="param(fill) #000" id="text84" transform="matrix(0.1736 -0.9848 0.9848 0.1736 1049.0824 678.7364)" font-family="'Arial-BoldMT'" font-size="20px">100</text>
<path id="path8222" inkscape:connector-curvature="0" d="M581,581.3h13.1 M581,581.3v-13.1 M581,581.3h-13.1 M581,581.3v13.1"/>
<path id="path8263" inkscape:connector-curvature="0" fill="param(fill) #000" d="M581.2,2l-8.8,20.9l-22.6,1.7L567,39.4l-5.4,22L581,49.6l19.3,11.9
	l-5.2-22.1l17.3-14.7L589.8,23L581.2,2z M581,5.6v26l-6.1-6.9L581,5.6z M608.6,26.1l-24.7,8l4.7-7.9
	C588.6,26.2,608.6,26.1,608.6,26.1z M554.1,26.2l24.7,8l-8.4,3.6C570.3,37.8,554.1,26.2,554.1,26.2z M579.8,37.1l0.8,9.2l-16.1,11.8
	C564.6,58.1,579.8,37.1,579.8,37.1z M583.5,37.1l8.9,2l6.3,19L583.5,37.1z"/>
<g id="Layer_2_00000121278970053689489160000009511341429202069376_">
</g>
</svg>
