<?xml version="1.0" encoding="utf-8"?>
<!-- Generator: Adobe Illustrator 25.4.1, SVG Export Plug-In . SVG Version: 6.00 Build 0)  -->
<svg version="1.1"
	 id="svg2" xmlns:cc="http://creativecommons.org/ns#" xmlns:dc="http://purl.org/dc/elements/1.1/" xmlns:inkscape="http://www.inkscape.org/namespaces/inkscape" xmlns:rdf="http://www.w3.org/1999/02/22-rdf-syntax-ns#" xmlns:sodipodi="http://sodipodi.sourceforge.net/DTD/sodipodi-0.dtd" xmlns:svg="http://www.w3.org/2000/svg"
	 xmlns="http://www.w3.org/2000/svg" xmlns:xlink="http://www.w3.org/1999/xlink" x="0px" y="0px" width="1163px" height="1163px"
	 viewBox="0 0 1163 1163" enable-background="new 0 0 1163 1163" xml:space="preserve">
<sodipodi:namedview  bordercolor="#666666" borderopacity="1" gridtolerance="10" guidetolerance="10" id="namedview41" inkscape:current-layer="svg2" inkscape:cx="121.79843" inkscape:cy="510.2428" inkscape:pageopacity="0" inkscape:pageshadow="2" inkscape:window-height="824" inkscape:window-maximized="0" inkscape:window-width="1107" inkscape:window-x="21" inkscape:window-y="0" inkscape:zoom="0.47693642" objecttolerance="10" pagecolor="#ffffff" showgrid="false">
	</sodipodi:namedview>
<g id="svg1901">
</g>
<sodipodi:namedview  bordercolor="#666666" borderopacity="1" gridtolerance="10" guidetolerance="10" id="namedview41" inkscape:current-layer="svg2" inkscape:cx="121.79843" inkscape:cy="510.2428" inkscape:pageopacity="0" inkscape:pageshadow="2" inkscape:window-height="824" inkscape:window-maximized="0" inkscape:window-width="1107" inkscape:window-x="21" inkscape:window-y="0" inkscape:zoom="0.47693642" objecttolerance="10" pagecolor="#ffffff" showgrid="false">
	</sodipodi:namedview>
<g id="svg1901_00000169527298901350117710000010589005790376143526_">
</g>
<path id="path6306_00000165211754280070891980000000349256692536453813_" inkscape:connector-curvature="0" fill="param(fill) #000" stroke="param(outline) #000" stroke-width="2.5" d="
	M525.8,271.1l-4.4-24.7 M472.7,285.4l-8.6-23.5 M423,308.7L410.4,287 M378.1,340.3L362,321.1 M339.3,379.2l-19.2-16.1 M307.9,424.2
	l-21.7-12.5 M284.8,474l-23.6-8.5 M270.7,527.1l-24.7-4.3 M266,581.8h-25.1 M270.8,636.5l-24.7,4.4 M285.2,689.6l-23.5,8.6
	 M308.4,739.3l-21.7,12.6 M340,784.2l-19.2,16.1 M378.9,823l-16.1,19.2 M424,854.4l-12.5,21.7 M473.8,877.5l-8.5,23.6 M526.9,891.6
	l-4.3,24.7 M581.6,896.3v25.1 M636.3,891.5l4.4,24.7 M689.3,877.1l8.6,23.5 M739,853.9l12.6,21.7 M784,822.3l16.1,19.2 M822.7,783.4
	l19.2,16.1 M854.1,738.3l21.7,12.5 M877.3,688.5l23.6,8.5 M891.4,635.4l24.7,4.3 M896.1,580.7h24.1 M891.2,526l24.7-4.4 M876.9,473
	l23.5-8.6 M853.6,423.3l21.7-12.6 M822,378.3l19.2-16.1 M783.1,339.6l16.1-19.2 M738.1,308.2l12.5-21.7 M688.3,285l8.5-23.6
	 M635.2,270.9l4.3-24.7 M580.5,266.2v-25.1 M553,267.5l-1.6-17.7 M498.9,277.1l-4.6-17.1 M447.4,296l-7.5-16.1 M399.9,323.5
	L389.7,309 M357.9,358.9l-12.6-12.5 M322.6,401L308,390.8 M295.3,448.6l-16.1-7.5 M276.6,500.3l-17.1-4.6 M267.1,554.4l-17.7-1.5
	 M267.2,609.3l-17.7,1.6 M270.8,636.5l-17.5,3.1 M276.8,663.3l-17.1,4.6 M295.7,714.9l-16.1,7.5 M323.3,762.4l-14.5,10.2
	 M358.6,804.4L346.1,817 M400.8,839.7l-10.2,14.6 M448.4,867l-7.5,16.1 M500,885.7l-4.6,17.1 M554.1,895.2l-1.5,17.7 M609,895.1
	l1.6,17.7 M663.1,885.5l4.6,17.1 M714.7,866.6l7.5,16.1 M762.2,839l10.2,14.5 M804.2,803.7l12.6,12.5 M839.4,761.5l14.6,10.2
	 M866.8,713.9l16.1,7.5 M885.5,662.3l17.1,4.6 M894.9,608.2l17.7,1.5 M894.8,553.3l17.7-1.6 M885.2,499.2l17.1-4.6 M866.3,447.6
	l16.1-7.5 M838.8,400.1l14.5-10.2 M803.4,358.1l12.5-12.6 M761.3,322.9l10.2-14.6 M713.7,295.5l7.5-16.1 M662,276.8l4.6-17.1
	 M607.9,267.4l1.5-17.7 M575,266.3l-0.2-10.4 M569.5,266.4l-0.4-10.4 M564,266.7l-0.6-10.4 M558.5,267l-0.7-10.4 M547.5,268
	l-1.1-10.3 M542.1,268.6l-1.3-10.3 M536.6,269.4l-1.5-10.3 M531.2,270.2l-1.6-10.3 M520.4,272.1l-2-10.2 M515,273.2l-2.2-10.2
	 M509.6,274.4l-2.4-10.1 M504.3,275.7l-2.5-10.1 M493.7,278.6l-2.9-10 M488.4,280.1l-3.1-9.9 M483.1,281.8l-3.2-9.9 M477.9,283.6
	l-3.4-9.8 M467.6,287.3l-3.7-9.7 M462.5,289.4l-3.9-9.6 M457.4,291.5l-4.1-9.6 M452.4,293.7l-4.2-9.5 M442.4,298.3l-4.6-9.3
	 M437.5,300.8l-4.7-9.3 M432.6,303.4l-4.9-9.2 M427.8,306l-5.1-9.1 M418.3,311.5l-5.4-8.9 M413.6,314.4l-5.5-8.8 M409,317.3
	l-5.7-8.7 M404.4,320.4l-5.8-8.6 M395.4,326.7l-6.1-8.4 M391,330l-6.3-8.3 M386.6,333.3l-6.4-8.2 M382.3,336.8l-6.6-8.1
	 M373.9,343.9l-6.8-7.8 M369.8,347.5l-7-7.7 M365.8,351.2l-7.1-7.6 M361.8,355l-7.2-7.5 M354,362.8l-7.5-7.2 M350.2,366.8l-7.6-7.1
	 M346.5,370.9l-7.7-7 M342.9,375l-7.9-6.8 M335.8,383.4l-8.1-6.5 M332.4,387.7l-8.2-6.4 M329.1,392.1l-8.3-6.2 M325.8,396.5
	l-8.4-6.1 M319.5,405.6l-8.6-5.8 M316.5,410.1l-8.7-5.7 M313.6,414.8l-8.8-5.5 M310.7,419.5l-8.9-5.3 M305.2,429l-9.1-5
	 M302.6,433.9l-9.2-4.9 M300.1,438.7l-9.3-4.7 M297.6,443.7l-9.4-4.5 M293,453.6l-9.5-4.2 M290.8,458.7l-9.6-4 M288.7,463.8
	l-9.7-3.9 M286.7,468.9l-9.7-3.7 M283,479.2l-9.8-3.4 M281.2,484.4l-9.9-3.2 M279.6,489.7l-10-3 M278,495l-10-2.9 M275.2,505.6
	l-10.1-2.5 M273.9,510.9l-10.1-2.3 M272.7,516.3l-10.2-2.1 M271.7,521.7l-10.2-2 M269.8,532.5l-10.3-1.6 M269,538l-10.3-1.4
	 M268.2,543.4l-10.3-1.2 M267.6,548.9l-10.4-1.1 M266.7,559.8l-10.4-0.7 M266.4,565.3l-10.4-0.5 M266.1,570.8l-10.4-0.3 M266,576.3
	l-10.4-0.2 M266,587.3l-10.4,0.2 M266.2,592.8l-10.4,0.4 M266.4,598.3l-10.4,0.6 M266.8,603.8l-10.4,0.7 M267.8,614.8l-10.3,1.1
	 M268.4,620.2l-10.3,1.3 M269.1,625.7l-10.3,1.5 M269.9,631.1l-10.3,1.6 M271.9,641.9l-10.2,2 M273,647.3l-10.2,2.2 M274.2,652.7
	L264,655 M275.5,658l-10.1,2.5 M278.3,668.6l-10,2.9 M279.9,673.9L270,677 M281.6,679.2l-9.9,3.2 M283.3,684.4l-9.8,3.4
	 M287.1,694.7l-9.7,3.7 M289.1,699.8l-9.6,3.9 M291.2,704.9l-9.6,4.1 M293.4,709.9l-9.5,4.2 M298.1,719.9l-9.3,4.6 M300.6,724.8
	l-9.3,4.7 M303.1,729.7l-9.2,4.9 M305.7,734.5l-9.1,5.1 M311.3,744l-8.9,5.4 M314.1,748.7l-8.8,5.5 M317.1,753.3l-8.7,5.7
	 M320.1,757.9l-8.6,5.8 M326.5,766.9l-8.4,6.1 M329.7,771.3l-8.3,6.3 M333.1,775.7l-8.2,6.4 M336.5,780l-8.1,6.6 M343.6,788.4
	l-7.8,6.8 M347.3,792.5l-7.7,7 M351,796.5l-7.6,7.1 M354.8,800.5l-7.5,7.2 M362.6,808.3l-7.2,7.5 M366.6,812.1l-7.1,7.6
	 M370.6,815.8l-6.9,7.7 M374.7,819.4l-6.8,7.9 M383.2,826.5l-6.5,8.1 M387.5,829.9l-6.4,8.2 M391.9,833.2l-6.2,8.3 M396.3,836.5
	l-6.1,8.4 M405.3,842.8l-5.8,8.6 M409.9,845.8l-5.7,8.7 M414.5,848.7l-5.5,8.8 M419.2,851.6l-5.3,8.9 M428.8,857.1l-5,9.1
	 M433.6,859.7l-4.9,9.2 M438.5,862.2l-4.7,9.3 M443.4,864.7l-4.5,9.4 M453.4,869.3l-4.2,9.5 M458.4,871.5l-4,9.6 M463.5,873.6
	l-3.9,9.7 M468.6,875.6l-3.7,9.7 M479,879.3l-3.4,9.8 M484.2,881.1L481,891 M489.4,882.7l-3,10 M494.7,884.3l-2.9,10 M505.3,887.1
	l-2.5,10.1 M510.7,888.4l-2.3,10.1 M516.1,889.6l-2.1,10.2 M521.4,890.6l-2,10.2 M532.3,892.5l-1.6,10.3 M537.7,893.3l-1.4,10.3
	 M543.2,894l-1.3,10.3 M548.6,894.7l-1.1,10.4 M559.6,895.6l-0.7,10.4 M565.1,895.9l-0.5,10.4 M570.6,896.2l-0.3,10.4 M576.1,896.3
	l-0.2,10.4 M587.1,896.3l0.2,10.4 M592.6,896.1l0.4,10.4 M598.1,895.9l0.6,10.4 M603.5,895.5l0.7,10.4 M614.5,894.5l1.1,10.3
	 M620,893.9l1.3,10.3 M625.4,893.2l1.5,10.3 M630.9,892.4l1.6,10.3 M641.7,890.4l2,10.2 M647.1,889.3l2.2,10.2 M652.4,888.1
	l2.4,10.1 M657.8,886.8l2.5,10.1 M668.4,884l2.9,10 M673.7,882.4l3.1,9.9 M678.9,880.7l3.2,9.9 M684.1,879l3.4,9.8 M694.4,875.2
	l3.7,9.7 M699.6,873.2l3.9,9.6 M704.6,871.1l4.1,9.6 M709.7,868.9l4.2,9.5 M719.6,864.2l4.6,9.3 M724.5,861.7l4.7,9.3 M729.4,859.2
	l4.9,9.2 M734.2,856.6l5.1,9.1 M743.8,851l5.4,8.9 M748.4,848.2l5.5,8.8 M753.1,845.2l5.7,8.7 M757.7,842.2l5.8,8.6 M766.7,835.8
	l6.1,8.4 M771.1,832.6l6.3,8.3 M775.4,829.2l6.4,8.2 M779.7,825.8l6.6,8.1 M788.1,818.7l6.8,7.8 M792.2,815l7,7.7 M796.3,811.3
	l7.1,7.6 M800.3,807.5l7.2,7.5 M808,799.7l7.5,7.2 M811.8,795.7l7.6,7.1 M815.5,791.7l7.7,7 M819.2,787.6l7.9,6.8 M826.2,779.1
	l8.1,6.5 M829.6,774.8l8.2,6.4 M833,770.4l8.3,6.2 M836.2,766l8.4,6.1 M842.5,757l8.6,5.8 M845.6,752.4l8.7,5.7 M848.5,747.8
	l8.8,5.5 M851.4,743.1l8.9,5.3 M856.8,733.5l9.1,5 M859.5,728.7l9.2,4.9 M862,723.8l9.3,4.7 M864.4,718.9l9.4,4.5 M869.1,708.9
	l9.5,4.2 M871.2,703.9l9.6,4 M873.3,698.8l9.7,3.9 M875.3,693.7l9.7,3.7 M879.1,683.3l9.8,3.4 M880.8,678.1l9.9,3.2 M882.5,672.9
	l10,3 M884,667.6l10,2.9 M886.9,657l10.1,2.5 M888.1,651.6l10.1,2.3 M889.3,646.2l10.2,2.1 M890.4,640.8l10.2,2 M892.3,630l10.3,1.6
	 M893.1,624.6l10.3,1.4 M893.8,619.1l10.3,1.3 M894.4,613.7l10.4,1.1 M895.3,602.7l10.4,0.7 M895.7,597.2l10.4,0.5 M895.9,591.7
	l10.4,0.3 M896,586.2l10.4,0.2 M896,575.2l10.4-0.2 M895.9,569.7l10.4-0.4 M895.6,564.2l10.4-0.6 M895.3,558.7l10.4-0.7
	 M894.3,547.8l10.3-1.1 M893.7,542.3L904,541 M892.9,536.9l10.3-1.5 M892.1,531.4l10.3-1.6 M890.2,520.6l10.2-2 M889.1,515.2
	l10.2-2.2 M887.9,509.9l10.1-2.4 M886.6,504.5l10.1-2.5 M883.7,493.9l10-2.9 M882.2,488.6l9.9-3.1 M880.5,483.4l9.9-3.2
	 M878.7,478.2l9.8-3.4 M875,467.9l9.7-3.7 M872.9,462.7l9.6-3.9 M870.8,457.7l9.6-4.1 M868.6,452.6l9.5-4.2 M864,442.7l9.3-4.6
	 M861.5,437.8l9.3-4.7 M858.9,432.9l9.2-4.9 M856.3,428.1l9.1-5.1 M850.8,418.5l8.9-5.4 M847.9,413.9l8.8-5.5 M845,409.2l8.7-5.7
	 M841.9,404.6l8.6-5.8 M835.6,395.6l8.4-6.1 M832.3,391.2l8.3-6.3 M829,386.9l8.2-6.4 M825.5,382.6l8.1-6.6 M818.4,374.2l7.8-6.8
	 M814.8,370.1l7.7-7 M811.1,366l7.6-7.1 M807.3,362l7.5-7.2 M799.5,354.3l7.2-7.5 M795.5,350.5l7.1-7.6 M791.4,346.8l6.9-7.7
	 M787.3,343.1l6.8-7.9 M778.9,336.1l6.5-8.1 M774.6,332.7l6.4-8.2 M770.2,329.3l6.2-8.3 M765.8,326.1l6.1-8.4 M756.7,319.8l5.8-8.6
	 M752.2,316.7l5.7-8.7 M747.5,313.8l5.5-8.8 M742.8,310.9l5.3-8.9 M733.3,305.5l5-9.1 M728.4,302.8l4.9-9.2 M723.6,300.3l4.7-9.3
	 M718.6,297.9l4.5-9.4 M708.7,293.2l4.2-9.5 M703.6,291.1l4-9.6 M698.5,289l3.9-9.7 M693.4,286.9l3.7-9.7 M683.1,283.2l3.4-9.8
	 M677.9,281.5l3.2-9.9 M672.6,279.8l3-10 M667.3,278.3l2.9-10 M656.7,275.4l2.5-10.1 M651.4,274.2l2.3-10.1 M646,273l2.1-10.2
	 M640.6,271.9l2-10.2 M629.8,270l1.6-10.3 M624.3,269.2l1.4-10.3 M618.9,268.5l1.2-10.3 M613.4,267.9l1.1-10.4 M602.5,266.9
	l0.7-10.4 M597,266.6l0.5-10.4 M591.5,266.4l0.3-10.4 M586,266.3l0.2-10.4"/>
<path id="path7048_00000086686233763810596910000010184731409917740943_" inkscape:connector-curvature="0" stroke="param(outline) #000" stroke-width="4" d="
	M581.2,352.6v110.9 M580.5,282.5l0.1,34"/>
<path id="path7050_00000167364695743926061440000002119470355187042474_" inkscape:connector-curvature="0" stroke="param(outline) #000" stroke-width="4" d="
	M282.2,580.8h181"/>
<path id="path7052_00000014608204871795479300000017899281198868048513_" inkscape:connector-curvature="0" stroke="param(outline) #000" stroke-width="4" d="
	M581.2,880.1v-181"/>
<path id="path7054_00000021120231024187955010000003435428047511881349_" inkscape:connector-curvature="0" stroke="param(outline) #000" stroke-width="4" d="
	M879.8,580.8h-181"/>
<path id="path7070_00000008142384906588008610000003847500881850084783_" inkscape:connector-curvature="0" stroke="param(outline) #000" stroke-width="3" d="
	M522.2,288.3l6.7,33.3 M466.2,305.4l13.1,31.4 M414.6,333.1l18.9,28.2 M369.4,370.4l24.1,24 M332.3,415.7l28.3,18.8 M304.8,467.4
	l31.4,13 M287.9,523.5l33.4,6.6 M288.1,640.1l33.3-6.7 M305.2,696.1l31.4-13.1 M332.9,747.7l28.2-18.9 M370.1,792.9l24-24.1
	 M415.5,830l18.8-28.3 M467.2,857.5l13-31.4 M523.2,874.4l6.6-33.4 M639.8,874.2l-6.7-33.3 M695.8,857.1l-13.1-31.4 M747.5,829.4
	l-18.9-28.2 M792.7,792.2l-24.1-24 M829.8,746.8L801.4,728 M857.3,695.1l-31.4-13 M874.2,639.1l-33.4-6.6 M874,522.5l-33.3,6.7
	 M856.9,466.4l-31.4,13.1 M829.2,414.8L801,433.7 M791.9,369.6l-24,24.1 M746.6,332.5l-18.8,28.3 M694.9,305l-13,31.4 M638.8,288.1
	l-6.6,33.4 M551.2,284l1.7,16.9 M493.8,295.5l5,16.3 M439.7,318l8,15 M391.1,350.6l10.8,13.1 M349.7,392.1l13.2,10.8 M317.3,440.9
	l15,8 M294.9,495l16.3,4.9 M283.6,552.5l16.9,1.6 M283.7,611.1l16.9-1.7 M295.2,668.5l16.3-5 M317.8,722.6l15-8 M350.4,771.2
	l13.1-10.8 M391.9,812.6l10.8-13.2 M440.6,845l8-15 M494.8,867.4l4.9-16.3 M552.3,878.7l1.6-16.9 M610.8,878.6l-1.7-16.9
	 M668.3,867.1l-5-16.3 M722.3,844.5l-8-15 M771,811.9l-10.8-13.1 M812.3,770.4l-13.2-10.8 M844.8,721.7l-15-8 M867.1,667.5
	l-16.3-4.9 M878.4,610l-16.9-1.6 M878.3,551.5l-16.9,1.7 M866.8,494l-16.3,5 M844.3,440l-15,8 M811.7,391.3l-13.1,10.8 M770.2,350
	l-10.8,13.2 M721.4,317.5l-8,15 M667.3,295.2l-4.9,16.3 M609.8,283.9l-1.6,16.9 M565.8,282.9l0.6,11.2 M536.7,285.8l1.7,11.1
	 M507.9,291.6l2.8,10.9 M479.9,300.1l3.8,10.6 M452.8,311.4l4.8,10.2 M427,325.3l5.8,9.6 M402.6,341.6l6.7,9 M380,360.2l7.6,8.3
	 M359.3,381l8.3,7.5 M340.7,403.7l9,6.7 M324.5,428.1l9.7,5.8 M310.7,454l10.2,4.8 M299.5,481.1l10.6,3.8 M291.1,509.2l10.9,2.7
	 M285.4,537.9l11.1,1.6 M282.6,567.1l11.2,0.5 M282.6,596.5l11.2-0.6 M285.5,625.6l11.1-1.7 M291.3,654.4l10.9-2.8 M299.9,682.4
	l10.6-3.8 M311.1,709.5l10.2-4.8 M325,735.3l9.6-5.8 M341.3,759.7l9-6.7 M360,782.3l8.3-7.6 M380.8,803l7.5-8.3 M403.5,821.6l6.7-9
	 M427.9,837.8l5.8-9.7 M453.7,851.6l4.8-10.2 M480.9,862.8l3.8-10.6 M508.9,871.2l2.7-10.9 M537.7,876.9l1.6-11.1 M566.9,879.7
	l0.5-11.2 M596.2,879.7l-0.6-11.2 M625.4,876.8l-1.7-11.1 M654.1,871l-2.8-10.9 M682.2,862.4l-3.8-10.6 M709.2,851.2l-4.8-10.2
	 M735.1,837.3l-5.8-9.6 M759.4,821l-6.7-9 M782.1,802.3l-7.6-8.3 M802.8,781.5l-8.3-7.5 M821.3,758.8l-9-6.7 M837.6,734.4l-9.7-5.8
	 M851.4,708.6l-10.2-4.8 M862.5,681.4l-10.6-3.8 M871,653.4l-10.9-2.7 M876.7,624.6l-11.1-1.6 M879.5,595.4l-11.2-0.5 M879.4,566.1
	l-11.2,0.6 M876.5,536.9l-11.1,1.7 M870.7,508.2l-10.9,2.7 M862.2,480.1l-10.6,3.8 M850.9,453l-10.2,4.8 M837,427.2l-9.6,5.8
	 M820.7,402.9l-9,6.7 M802.1,380.2l-8.3,7.6 M781.3,359.5l-7.5,8.3 M758.6,341l-6.7,9 M734.2,324.7l-5.8,9.7 M708.3,310.9l-4.8,10.2
	 M681.2,299.8l-3.8,10.6 M653.1,291.3l-2.7,10.9 M624.3,285.6l-1.6,11.1 M595.2,282.8l-0.5,11.2"/>
<path id="path7846_00000054982210898833801150000009349566595806088624_" inkscape:connector-curvature="0" stroke="param(outline) #000" stroke-width="4" d="
	M211.4,581.9h-52.7"/>
<path id="path7848_00000101063824392982029170000012097847559363605641_" inkscape:connector-curvature="0" stroke="param(outline) #000" stroke-width="4" d="
	M581.7,947.9l0.1,52.7"/>
<path id="path7850_00000092437024636113882550000000713038252778135686_" inkscape:connector-curvature="0" stroke="param(outline) #000" stroke-width="4" d="
	M949.7,580.6l52.7-0.1"/>
<path id="path7844_00000183247498861802620570000004426941727173713068_" inkscape:connector-curvature="0" fill-opacity="0" stroke="param(outline) #000" stroke-width="4" d="
	M580.4,214.6v-52.7 M588.6,180.6l-8.3-18.4l0,0l-8.2,18.4"/>
<text fill="param(fill) #000" id="text16_00000071545190261188015330000017769434588174321293_" transform="matrix(1 -1.800000e-03 1.800000e-03 1 575.9149 236.5285)" font-family="'Arial-BoldMT'" font-size="20px">0</text>
<text fill="param(fill) #000" id="text18_00000143611521330277565170000017893331137456428460_" transform="matrix(0.8669 0.4985 -0.4985 0.8669 745.179 279.3483)" font-family="'Arial-BoldMT'" font-size="20px">30</text>
<text fill="param(fill) #000" id="text20_00000072265968865040785890000002113295837406012301_" transform="matrix(0.5015 0.8652 -0.8652 0.5015 874.5169 400.882)" font-family="'Arial-BoldMT'" font-size="20.0007px">60</text>
<text fill="param(fill) #000" id="text22_00000048466829764277338200000008218068966154236827_" transform="matrix(1.800000e-03 1 -1 1.800000e-03 926.2612 572.3894)" font-family="'Arial-BoldMT'" font-size="20px">90</text>
<text fill="param(fill) #000" id="text24_00000183227400847529941750000012489765273521942407_" transform="matrix(-0.4985 0.8669 -0.8669 -0.4985 886.9464 743.283)" font-family="'Arial-BoldMT'" font-size="20px">120</text>
<text fill="param(fill) #000" id="text26_00000023258733763649741740000012893876152282599346_" transform="matrix(-0.8652 0.5015 -0.5015 -0.8652 765.1844 872.2399)" font-family="'Arial-BoldMT'" font-size="20.0007px">150</text>
<text fill="param(fill) #000" id="text28_00000178173830821965242460000002475246795038391943_" transform="matrix(-1 1.800000e-03 -1.800000e-03 -1 595.8561 924.4526)" font-family="'Arial-BoldMT'" font-size="20px">180</text>
<text fill="param(fill) #000" id="text30_00000085930296629448951270000005942690102397478025_" transform="matrix(-0.8669 -0.4985 0.4985 -0.8669 420.9191 887.8702)" font-family="'Arial-BoldMT'" font-size="20px">210</text>
<text fill="param(fill) #000" id="text32_00000047757547978479946220000003991646555295750073_" transform="matrix(-0.5015 -0.8652 0.8652 -0.5015 290.4061 766.3885)" font-family="'Arial-BoldMT'" font-size="20.0007px">240</text>
<text fill="param(fill) #000" id="text34_00000006693918402705861340000014780686959610576045_" transform="matrix(-1.800000e-03 -1 1 -1.800000e-03 235.8206 594.0231)" font-family="'Arial-BoldMT'" font-size="20px">270</text>
<text fill="param(fill) #000" id="text36_00000165201197432384403080000013823246068512854945_" transform="matrix(0.4985 -0.8669 0.8669 0.4985 276.976 422.3605)" font-family="'Arial-BoldMT'" font-size="20px">300</text>
<text fill="param(fill) #000" id="text38_00000148619451922315547980000012196277742674740918_" transform="matrix(0.8652 -0.5015 0.5015 0.8652 396.0777 291.0585)" font-family="'Arial-BoldMT'" font-size="20.0007px">330</text>
<path id="text8238_00000075860015192032324110000017381979427314370492_" inkscape:connector-curvature="0" fill="param(fill) #000" stroke="param(outline) #000" stroke-width="0.5" d="
	M538.3,333l2.3-0.3l4.1,7.4l1.8-8.3l2.3-0.3l1.7,11.5l-1.5,0.2l-1.5-10.1l-1.8,8.3l-1.6,0.2l-4.1-7.5l1.5,10.1l-1.5,0.2L538.3,333
	 M556.6,332.3l-1.6,6l4.3-0.4L556.6,332.3 M555.6,330.8l1.8-0.2l5.5,11.2l-1.6,0.2l-1.3-2.9l-5.2,0.5l-0.8,3.1l-1.7,0.2L555.6,330.8
	 M572.2,339.7l-0.2-3.1l-2.6,0.1l-0.1-1.3l4.1-0.2l0.2,5c-0.6,0.5-1.2,0.8-2,1.1c-0.7,0.3-1.5,0.4-2.3,0.4c-1.8,0.1-3.3-0.4-4.4-1.4
	c-1.1-1-1.7-2.5-1.8-4.4s0.3-3.4,1.3-4.5s2.4-1.7,4.2-1.8c0.8,0,1.5,0,2.2,0.2s1.3,0.4,1.9,0.7l0.1,1.7c-0.6-0.5-1.2-0.8-1.9-1
	s-1.4-0.3-2.1-0.3c-1.4,0.1-2.5,0.5-3.2,1.3s-1,2-0.9,3.6s0.5,2.7,1.2,3.5c0.8,0.8,1.8,1.1,3.3,1c0.6,0,1.1-0.1,1.5-0.2
	C571.5,340.1,571.8,339.9,572.2,339.7 M576.7,329.6h2.1l5.2,9.8v-9.8h1.5v11.7h-2.1l-5.2-9.8v9.8h-1.5V329.6 M589.2,329.7l7.4,0.3
	l-0.1,1.3l-5.8-0.3l-0.2,3.5l5.5,0.2l-0.1,1.3l-5.5-0.2l-0.2,4.2l5.9,0.3l-0.1,1.3l-7.5-0.3L589.2,329.7 M598.2,330.1l9.8,0.8
	l-0.1,1.3l-4.1-0.3l-0.9,10.3l-1.6-0.1l0.9-10.3l-4.1-0.3L598.2,330.1 M609.8,331.2l1.6,0.2l-1.3,11.6l-1.6-0.2L609.8,331.2
	 M623.4,333.9l-0.2,1.6c-0.5-0.6-1-1-1.5-1.3c-0.6-0.3-1.2-0.5-1.8-0.6c-1.3-0.2-2.4,0.1-3.2,0.8c-0.8,0.7-1.3,1.8-1.6,3.3
	c-0.2,1.5,0,2.7,0.5,3.6c0.6,0.9,1.5,1.5,2.9,1.6c0.7,0.1,1.3,0.1,1.9-0.1c0.6-0.2,1.2-0.4,1.8-0.9l-0.2,1.6
	c-0.6,0.3-1.2,0.5-1.9,0.6c-0.6,0.1-1.3,0.1-2,0c-1.7-0.3-3-1-3.9-2.2c-0.8-1.2-1.1-2.8-0.9-4.6c0.3-1.9,1-3.2,2.1-4.2
	c1.2-0.9,2.6-1.3,4.4-1c0.7,0.1,1.3,0.3,1.9,0.6C622.4,333.1,622.9,333.5,623.4,333.9"/>
</svg>
